<svg width="291" height="179" viewBox="0 0 291 179" fill="none" xmlns="http://www.w3.org/2000/svg">
<path d="M186.479 72.8072C185.576 55.5397 168.103 46.851 159.163 45.7294L152.009 54.4081C157.768 53.5158 172.09 61.7707 172.79 67.7426C173.489 73.7145 169.082 81.3463 163.28 81.8947C158.724 82.3283 151.126 78.151 148.235 81.8099C140.927 75.0903 128.444 75.6436 121.725 82.9863C119.129 82.0268 116.357 81.6866 113.615 81.9912C110.874 82.2958 108.235 83.2373 105.896 84.7451C103.558 86.2529 101.58 88.288 100.111 90.6976C98.6424 93.1073 97.721 95.829 97.416 98.6588L124.326 114.79C124.326 114.79 135.54 125.168 143.186 118.778C145.797 116.594 146.791 113.459 147.047 110.433C147.557 110.5 148.075 110.466 148.572 110.333C150.503 109.795 151.951 108 152.589 106.031C152.671 105.777 152.733 105.533 152.791 105.259C159.327 106.754 168.238 105.059 173.494 101.67C181.121 96.7795 186.962 82.0941 186.479 72.8072Z" fill="#E8EEFF"/>
<path d="M150.137 85.1696C150.137 85.1696 150.098 85.1298 150.035 85.035L149.77 84.6263C149.654 84.4418 149.509 84.2175 149.321 83.9683C149.133 83.719 148.93 83.415 148.664 83.1109C147.213 81.324 145.437 79.8474 143.437 78.7641C142.069 78.0149 140.607 77.4663 139.092 77.134C137.349 76.7399 135.553 76.6557 133.783 76.8848C129.697 77.4117 125.93 79.4331 123.163 82.5825C122.763 83.0311 122.41 83.5196 122.077 83.9683L122.014 84.058L121.923 84.0082C119.785 82.9287 117.45 82.3263 115.072 82.2405C112.693 82.1546 110.324 82.587 108.118 83.5097C107.368 83.8427 106.638 84.2205 105.931 84.6412C104.655 85.3869 103.473 86.2927 102.412 87.338C100.867 88.8379 99.6664 90.6757 98.898 92.7167C98.7532 93.0756 98.6567 93.3996 98.5698 93.6838C98.4921 93.9211 98.4261 94.1624 98.3719 94.4066L98.256 94.8552C98.2477 94.9074 98.2314 94.9579 98.2078 95.0048C98.2078 95.0048 98.2078 94.9499 98.2319 94.8503L98.3236 94.3966C98.3677 94.1486 98.4273 93.9038 98.5022 93.6638C98.5794 93.3747 98.6712 93.0457 98.8063 92.6669C99.5501 90.5897 100.742 88.7146 102.291 87.1835C103.354 86.1178 104.543 85.195 105.83 84.4369C106.541 84.0048 107.278 83.6186 108.036 83.2804C108.848 82.9319 109.685 82.6503 110.541 82.4379C114.401 81.4773 118.465 81.9356 122.034 83.734L121.875 83.7739C123.272 81.7995 125.048 80.1439 127.093 78.9106C129.138 77.6772 131.407 76.8926 133.759 76.6056C135.553 76.3776 137.371 76.4686 139.136 76.8748C140.672 77.2207 142.154 77.7879 143.538 78.5597C145.548 79.6638 147.323 81.1742 148.756 83.0012C148.985 83.2818 149.199 83.5746 149.398 83.8785C149.555 84.0942 149.7 84.3189 149.832 84.5515C149.934 84.731 150.016 84.8705 150.079 84.9752C150.103 85.0382 150.123 85.1033 150.137 85.1696Z" fill="#2F448F"/>
<path d="M155.335 81.5606C155.306 81.6005 154.959 81.3363 154.321 81.0921C153.95 80.9526 153.565 80.8557 153.173 80.8029C152.692 80.7436 152.205 80.7436 151.724 80.8029C151.244 80.8785 150.774 81.0124 150.325 81.2017C149.96 81.3611 149.613 81.5617 149.292 81.7999C148.741 82.2136 148.476 82.5626 148.442 82.5327C148.408 82.5028 148.486 82.428 148.601 82.2635C148.772 82.0372 148.968 81.833 149.185 81.6553C149.504 81.3835 149.856 81.1571 150.233 80.9824C151.164 80.5488 152.196 80.4016 153.206 80.5587C153.616 80.6229 154.015 80.7436 154.394 80.9176C154.65 81.0279 154.892 81.172 155.113 81.3463C155.267 81.4759 155.345 81.5507 155.335 81.5606Z" fill="#2F448F"/>
<path d="M162.918 92.0637C162.918 92.0637 162.643 91.9241 162.127 91.7347C161.392 91.4654 160.612 91.3502 159.834 91.3957C158.664 91.456 157.543 91.9034 156.638 92.6719C155.514 93.6319 154.787 94.9997 154.606 96.4952L154.582 96.7046L154.418 96.59C153.862 96.2229 153.268 95.9219 152.646 95.6927C151.047 95.1029 149.319 94.9906 147.66 95.3687C146.31 95.6987 145.052 96.3489 143.987 97.2679C143.268 97.8878 142.643 98.6154 142.133 99.4264C141.776 100.005 141.622 100.354 141.602 100.339C141.623 100.248 141.656 100.161 141.699 100.079C141.801 99.8357 141.919 99.5993 142.051 99.3715C142.658 98.3201 143.462 97.4042 144.416 96.6775C145.37 95.9508 146.455 95.4279 147.607 95.1394C148.786 94.8552 150.008 94.8182 151.201 95.0305C152.395 95.2428 153.534 95.7002 154.553 96.3756L154.36 96.4703C154.546 94.9052 155.312 93.4755 156.498 92.4824C157.445 91.6955 158.614 91.2492 159.829 91.2113C160.626 91.1806 161.42 91.3233 162.16 91.63C162.359 91.7128 162.551 91.8111 162.735 91.9241C162.802 91.9614 162.864 92.0084 162.918 92.0637Z" fill="#2F448F"/>
<path d="M183.781 62.7178C183.856 62.8284 183.922 62.9451 183.979 63.0668C184.094 63.3011 184.278 63.645 184.485 64.0986C185.055 65.3905 185.507 66.7338 185.837 68.1115C186.315 70.1537 186.561 72.2465 186.571 74.3475C186.58 75.5897 186.518 76.8314 186.387 78.0662C186.253 79.3931 186.047 80.7112 185.769 82.0143C184.815 86.6003 183.107 90.9837 180.72 94.9749C180 96.1834 179.176 97.3228 178.259 98.3796C177.926 98.7435 177.66 99.0226 177.467 99.1971C177.375 99.2927 177.275 99.3795 177.168 99.4563C177.249 99.3501 177.338 99.2501 177.433 99.1572C177.617 98.9728 177.863 98.6837 178.186 98.3098C179.07 97.2351 179.867 96.0881 180.571 94.8802C182.898 90.887 184.571 86.5249 185.523 81.9694C185.8 80.6763 186.006 79.3682 186.141 78.0513C186.277 76.8251 186.343 75.5917 186.339 74.3575C186.341 72.2677 186.116 70.1843 185.668 68.1464C185.352 66.7831 184.928 65.4492 184.399 64.1585C184.21 63.6999 184.037 63.3559 183.916 63.1116C183.86 62.9844 183.815 62.8527 183.781 62.7178Z" fill="#2F448F"/>
<path d="M170.429 63.3809C170.6 63.525 170.751 63.6928 170.878 63.8793C171.255 64.3448 171.59 64.8455 171.877 65.3748C172.849 67.1281 173.33 69.1256 173.267 71.1447C173.204 73.1638 172.599 75.1252 171.52 76.8101C171.201 77.3171 170.838 77.7927 170.434 78.2308C170.292 78.4001 170.129 78.5508 169.951 78.6794C170.458 78.0511 170.931 77.3937 171.366 76.7104C172.382 75.0353 172.95 73.1121 173.012 71.1366C173.073 69.1611 172.627 67.2039 171.718 65.4645C171.332 64.7422 170.902 64.0462 170.429 63.3809Z" fill="#2F448F"/>
<path d="M152.733 50.0065C153.97 51.9583 155.57 53.6373 157.439 54.9465C157.707 55.1306 158.023 55.2234 158.344 55.2115C158.665 55.1996 158.974 55.0837 159.228 54.8802C159.481 54.6767 159.667 54.3959 159.757 54.0777C159.848 53.7595 159.839 53.4199 159.732 53.1071V53.0672C161.924 54.8027 164.226 56.3864 166.62 57.8078C166.955 58.0108 167.343 58.1017 167.73 58.0682C168.117 58.0347 168.485 57.8784 168.782 57.6207C169.08 57.363 169.293 57.0165 169.393 56.6288C169.492 56.2411 169.473 55.831 169.338 55.4549C166.939 48.6742 162.24 43.0223 156.112 39.5482L152.733 50.0065Z" fill="#407BFF"/>
<g opacity="0.3">
<path d="M155.514 50.2457C155.707 50.5906 155.964 50.8923 156.272 51.133C156.426 51.2513 156.61 51.3209 156.802 51.3333C156.994 51.3457 157.185 51.3003 157.353 51.2028C157.835 50.8688 157.811 50.0562 158.318 49.7472C158.825 49.4381 159.481 49.8818 159.926 50.3155L161.325 51.6963C161.668 52.0352 162.131 52.3991 162.571 52.1948C163.01 51.9904 163.087 51.2875 162.981 50.7591C162.723 49.5264 162.18 48.3767 161.397 47.4086C160.614 46.4405 159.616 45.683 158.487 45.201L155.514 50.2457Z" fill="black"/>
</g>
<path d="M174.098 62.1197C174.113 62.5754 174.302 63.0064 174.622 63.3201C174.943 63.6338 175.37 63.805 175.811 63.7968C176.253 63.7886 176.674 63.6018 176.983 63.2764C177.292 62.9511 177.466 62.5134 177.466 62.0573C177.466 61.6013 177.292 61.1636 176.983 60.8382C176.674 60.5129 176.253 60.3261 175.811 60.3179C175.37 60.3097 174.943 60.4809 174.622 60.7946C174.302 61.1082 174.113 61.5393 174.098 61.995" fill="#407BFF"/>
<path d="M85.3488 1.97304C83.9876 4.1614 86.9658 11.8082 93.7912 21.5985C97.8109 27.3782 102.7 32.4571 108.272 36.6428L147.631 62.7186L154.283 52.0111L158.145 45.8L164.796 35.0925L129.077 11.4293C125.584 9.11167 121.884 7.14528 118.028 5.55716C114.173 3.94858 110.198 2.66331 106.143 1.71383C94.7759 -0.863349 86.7052 -0.215316 85.3488 1.97304Z" fill="#E8EEFF"/>
<path d="M140.111 18.7512L140.256 18.7014C144.438 17.2516 148.883 16.791 153.261 17.3536C157.639 17.9162 161.838 19.4875 165.549 21.9515L170.265 25.077L157.749 30.4358L140.111 18.7512Z" fill="#407BFF"/>
<path d="M140.111 18.7513L140.203 18.8111L140.458 18.9756L141.424 19.6186L145.097 22.0064L157.787 30.361H157.72L169.126 25.4958L170.231 24.9973V25.1468L167.456 23.3024C166.539 22.7043 165.65 22.0861 164.748 21.5428C163.024 20.4745 161.2 19.5894 159.303 18.9008C157.59 18.2754 155.824 17.8213 154.027 17.5449C153.187 17.3904 152.367 17.3405 151.58 17.2558C150.793 17.1711 150.035 17.1661 149.311 17.196C147.033 17.2118 144.765 17.5029 142.553 18.0633C141.762 18.2378 141.173 18.4571 140.762 18.5618L140.14 18.7463L140.294 18.6864L140.714 18.517C141.12 18.3923 141.709 18.163 142.5 17.9786C144.718 17.3905 146.997 17.0809 149.287 17.0564C150.011 17.0215 150.774 17.0564 151.565 17.1062C152.357 17.1561 153.178 17.2359 154.022 17.3854C155.83 17.6577 157.608 18.1084 159.332 18.7313C161.24 19.4203 163.076 20.3071 164.811 21.3783C165.723 21.9266 166.606 22.5398 167.523 23.1429L170.309 24.9973L170.444 25.087L170.294 25.1518L169.189 25.6503L157.778 30.5305H157.739H157.705L145.005 22.0562L141.385 19.6336L140.42 18.9905C140.318 18.9207 140.236 18.8709 140.178 18.826L140.111 18.7513Z" fill="#2F448F"/>
<path d="M122.951 46.3824C122.951 46.3824 122.951 46.4572 122.951 46.5369C123.413 51.0044 124.841 55.3076 127.13 59.1289C129.418 62.9502 132.508 66.1919 136.172 68.6149L140.825 71.7005L140.343 57.9074L122.951 46.3824Z" fill="#407BFF"/>
<path d="M122.951 46.3824L123.028 46.4272L123.269 46.5868L124.235 47.2049L127.826 49.5627L140.4 57.8376L140.434 57.8625V57.8974C140.574 61.7707 140.729 66.0178 140.888 70.4693C140.888 70.888 140.917 71.3067 140.931 71.6906V71.8551L140.796 71.7653L138.054 69.9508C137.157 69.3477 136.259 68.7794 135.409 68.1613C133.764 66.9959 132.239 65.6596 130.857 64.1734C129.608 62.8365 128.488 61.3773 127.512 59.8166C127.03 59.0988 126.648 58.351 126.252 57.6532C125.857 56.9553 125.543 56.2524 125.287 55.5645C124.364 53.4419 123.689 51.2128 123.279 48.9247C123.12 48.1171 123.072 47.4791 123.014 47.0504C122.989 46.841 122.97 46.6815 122.956 46.5519C122.941 46.4223 122.956 46.3874 122.956 46.3874C122.956 46.4821 122.994 46.6615 123.052 47.0354C123.11 47.4093 123.178 48.1022 123.347 48.9047C123.772 51.1872 124.454 53.4105 125.379 55.5296C125.654 56.2125 126.016 56.8855 126.344 57.6083C126.672 58.3311 127.126 59.039 127.604 59.7518C128.582 61.3014 129.702 62.7504 130.949 64.0787C132.327 65.5523 133.846 66.8784 135.482 68.0366C136.326 68.6448 137.229 69.2131 138.127 69.8162L140.869 71.6307L140.738 71.7055C140.738 71.3217 140.714 70.9029 140.695 70.4892C140.54 66.0377 140.391 61.7856 140.256 57.9124L140.289 57.9772L127.816 49.6624L124.23 47.2597L123.265 46.6167L123.018 46.4472L122.951 46.3824Z" fill="#2F448F"/>
<path d="M85.3484 1.97283C84.2334 3.62282 85.8311 8.62265 89.7507 15.3123L100.336 0.572085C92.7241 -0.389995 86.7724 -0.145736 85.3484 1.97283Z" fill="#407BFF"/>
<path d="M158.207 31.1337C158.246 31.1636 154.51 37.3299 149.861 44.9069C145.213 52.4839 141.414 58.6153 141.376 58.5854C141.337 58.5554 145.059 52.4141 149.721 44.8171C154.384 37.2202 158.169 31.1088 158.207 31.1337Z" fill="#2F448F"/>
<path d="M159.322 32.0509C159.361 32.0509 155.625 38.2421 150.976 45.8191C146.328 53.3961 142.529 59.5275 142.491 59.4976C142.452 59.4677 146.188 53.3113 150.836 45.7294C155.485 38.1474 159.284 32.021 159.322 32.0509Z" fill="#2F448F"/>
<path d="M160.597 32.8585C160.635 32.8884 156.899 39.0547 152.251 46.6317C147.602 54.2087 143.804 60.34 143.765 60.3101C143.726 60.2802 147.462 54.1239 152.111 46.5419C156.759 38.96 160.558 32.8335 160.597 32.8585Z" fill="#2F448F"/>
<path d="M161.871 33.671C161.91 33.7009 158.169 39.8672 153.525 47.4442C148.882 55.0212 145.059 61.1476 145.059 61.1226C145.059 61.0977 148.756 54.9364 153.404 47.3544C158.053 39.7724 161.828 33.646 161.871 33.671Z" fill="#2F448F"/>
<path d="M163.14 34.4686C163.179 34.4686 159.443 40.6598 154.795 48.2418C150.146 55.8237 146.347 61.9452 146.309 61.9202C146.27 61.8953 150.006 55.734 154.655 48.152C159.303 40.57 163.102 34.4686 163.14 34.4686Z" fill="#2F448F"/>
<path d="M131.591 32.5344C131.591 32.5344 131.663 32.5344 131.794 32.6242C131.924 32.7139 132.108 32.8036 132.349 32.9432C132.832 33.2323 133.503 33.666 134.333 34.2093C135.998 35.2911 138.281 36.8164 140.791 38.5163C143.301 40.2161 145.565 41.7664 147.202 42.898L149.132 44.2489L149.649 44.6227C149.713 44.6603 149.772 44.7073 149.823 44.7623C149.755 44.7293 149.691 44.6909 149.63 44.6477L149.094 44.3037L147.134 42.9977L140.714 38.6558L134.285 34.309L132.354 33.003C132.122 32.8535 131.943 32.7238 131.818 32.6541L131.591 32.5344Z" fill="#2F448F"/>
<path d="M140.111 18.7513C140.149 18.7812 136.375 24.9375 131.683 32.4996C126.991 40.0616 123.154 46.183 123.115 46.1581C123.076 46.1332 126.851 39.9769 131.543 32.4098C136.235 24.8428 140.072 18.7264 140.111 18.7513Z" fill="#2F448F"/>
<path d="M145.947 38.9147C145.923 38.8351 145.923 38.75 145.947 38.6704C145.98 38.4417 146.089 38.232 146.256 38.0772C146.377 37.9552 146.528 37.8683 146.692 37.8255C146.856 37.7826 147.029 37.7852 147.192 37.833C147.4 37.8841 147.588 38.0014 147.728 38.1684C147.868 38.3354 147.954 38.5436 147.974 38.7637C147.994 38.9839 147.946 39.2049 147.838 39.3956C147.73 39.5863 147.566 39.7372 147.371 39.8269C147.219 39.9055 147.05 39.9413 146.88 39.9308C146.711 39.9203 146.547 39.8639 146.405 39.7671C146.218 39.6518 146.072 39.4769 145.99 39.2686C145.942 39.1191 145.951 39.0243 145.961 39.0243C145.971 39.0243 145.985 39.1091 146.053 39.2437C146.143 39.4311 146.286 39.5858 146.463 39.6873C146.59 39.7625 146.734 39.8021 146.881 39.8021C147.027 39.8021 147.171 39.7625 147.298 39.6873C147.458 39.6063 147.591 39.4767 147.678 39.316C147.765 39.1552 147.803 38.9708 147.786 38.7873C147.77 38.6038 147.699 38.4299 147.584 38.2888C147.47 38.1477 147.316 38.0461 147.144 37.9975C147.005 37.9523 146.857 37.9452 146.715 37.9766C146.573 38.0081 146.441 38.0771 146.333 38.1769C146.178 38.3058 146.064 38.4793 146.005 38.6754C145.961 38.8299 145.961 38.9147 145.947 38.9147Z" fill="#2F448F"/>
<path d="M138.431 33.7308C138.431 33.7308 138.397 33.6461 138.431 33.4866C138.464 33.2578 138.573 33.0481 138.74 32.8934C138.861 32.7713 139.012 32.6845 139.176 32.6416C139.341 32.5987 139.513 32.6013 139.676 32.6491C139.884 32.7003 140.072 32.8176 140.212 32.9846C140.353 33.1515 140.439 33.3598 140.458 33.5799C140.478 33.8001 140.43 34.021 140.322 34.2118C140.214 34.4025 140.05 34.5533 139.855 34.6431C139.703 34.7217 139.534 34.7575 139.364 34.747C139.195 34.7365 139.031 34.68 138.889 34.5833C138.705 34.4664 138.561 34.2917 138.479 34.0848C138.448 34.0076 138.437 33.9236 138.445 33.8405C138.445 33.8405 138.474 33.9253 138.542 34.0598C138.632 34.2473 138.775 34.402 138.952 34.5035C139.078 34.5787 139.221 34.6184 139.367 34.6184C139.513 34.6184 139.656 34.5787 139.782 34.5035C139.943 34.4229 140.076 34.2937 140.163 34.1333C140.251 33.9728 140.289 33.7886 140.273 33.6052C140.256 33.4218 140.186 33.2478 140.072 33.1064C139.958 32.965 139.805 32.8629 139.633 32.8136C139.493 32.7686 139.345 32.7614 139.202 32.7929C139.059 32.8243 138.927 32.8933 138.817 32.9931C138.665 33.1235 138.552 33.2966 138.494 33.4916C138.445 33.6461 138.445 33.7308 138.431 33.7308Z" fill="#2F448F"/>
<path d="M123.955 30.1217C123.935 30.0416 123.935 29.9577 123.955 29.8775C123.992 29.65 124.1 29.4415 124.264 29.2843C124.388 29.157 124.543 29.067 124.713 29.024C124.884 28.981 125.062 28.9865 125.229 29.04C125.437 29.0918 125.624 29.2097 125.764 29.377C125.904 29.5442 125.989 29.7526 126.008 29.9727C126.027 30.1927 125.979 30.4135 125.871 30.6039C125.762 30.7942 125.598 30.9447 125.403 31.034C125.251 31.1126 125.082 31.1484 124.912 31.1379C124.743 31.1274 124.579 31.0709 124.437 30.9742C124.251 30.8589 124.107 30.6838 124.027 30.4757C123.974 30.3211 123.984 30.2314 123.993 30.2314C124.028 30.3026 124.059 30.3758 124.085 30.4508C124.178 30.6361 124.32 30.7901 124.495 30.8944C124.623 30.9687 124.767 31.0077 124.913 31.0077C125.059 31.0077 125.203 30.9687 125.33 30.8944C125.483 30.8037 125.608 30.6717 125.693 30.5127C125.778 30.3537 125.82 30.1737 125.813 29.9921C125.789 29.8109 125.715 29.6406 125.601 29.5011C125.486 29.3616 125.335 29.2587 125.166 29.2045C125.028 29.1594 124.88 29.1522 124.738 29.1837C124.596 29.2151 124.464 29.2842 124.355 29.384C124.2 29.5129 124.086 29.6864 124.027 29.8825C123.969 30.037 123.969 30.1217 123.955 30.1217Z" fill="#2F448F"/>
<path d="M117.511 28.4867C117.54 28.4518 120.301 30.0221 123.68 31.9761C127.059 33.9302 129.771 35.5902 129.742 35.63C129.714 35.6699 126.952 34.0947 123.574 32.1406C120.195 30.1866 117.487 28.5415 117.511 28.4867Z" fill="#2F448F"/>
<g opacity="0.3">
<path d="M139.894 57.6033C139.894 57.6033 128.647 49.7671 122.951 46.3824C124.916 49.2886 127.179 52.5885 129.907 54.742C132.773 56.949 136.336 57.9696 139.894 57.6033Z" fill="black"/>
</g>
<path d="M121.605 22.9985C123.087 17.7895 120.199 12.3264 115.155 10.7963C110.111 9.26618 104.821 12.2485 103.339 17.4574C101.858 22.6664 104.745 28.1295 109.789 29.6596C114.833 31.1897 120.124 28.2074 121.605 22.9985Z" fill="white"/>
<path d="M121.985 20.7951C121.979 20.7421 121.979 20.6886 121.985 20.6356C121.985 20.5159 121.985 20.3614 121.985 20.167C121.99 19.9136 121.975 19.6603 121.942 19.4093C121.917 19.0656 121.868 18.7242 121.797 18.3874C121.619 17.4616 121.31 16.568 120.88 15.7354C120.313 14.631 119.548 13.648 118.626 12.8392C117.427 11.7853 115.992 11.0591 114.451 10.7273C112.91 10.3954 111.313 10.4686 109.807 10.94C108.937 11.2016 108.112 11.6001 107.359 12.1214C106.97 12.3873 106.598 12.6787 106.244 12.9938C105.902 13.3289 105.58 13.6851 105.279 14.0605C104.001 15.651 103.25 17.6224 103.137 19.6857C103.023 21.749 103.552 23.7957 104.647 25.5257C104.899 25.9322 105.177 26.3218 105.477 26.6922C105.792 27.0485 106.131 27.3816 106.491 27.6892C107.181 28.2968 107.957 28.7911 108.793 29.1547C110.333 29.8366 112.02 30.0843 113.683 29.8725C115.01 29.6962 116.285 29.232 117.426 28.5103C118.566 27.7886 119.546 26.8258 120.301 25.6852C120.821 24.9093 121.226 24.0575 121.503 23.1579C121.61 22.8316 121.697 22.4986 121.763 22.1609C121.824 21.9155 121.866 21.6655 121.889 21.4132C121.913 21.2238 121.932 21.0693 121.951 20.9496C121.955 20.897 121.964 20.8451 121.98 20.7951C121.985 20.8482 121.985 20.9015 121.98 20.9546C121.98 21.0742 121.956 21.2288 121.942 21.4182C121.929 21.6733 121.895 21.9267 121.84 22.1759C121.782 22.5136 121.702 22.8467 121.599 23.1729C121.347 24.0941 120.956 24.9688 120.441 25.765C119.685 26.9364 118.696 27.9278 117.54 28.6731C116.384 29.4184 115.087 29.9004 113.736 30.0869C112.028 30.3169 110.291 30.0708 108.706 29.374C107.848 29.004 107.05 28.4996 106.341 27.8786C105.585 27.2487 104.933 26.4962 104.41 25.6503C103.858 24.7837 103.444 23.8311 103.184 22.8289C102.921 21.7952 102.812 20.7262 102.861 19.6585C102.983 17.5451 103.754 15.5268 105.062 13.896C105.372 13.5055 105.709 13.139 106.071 12.7994C106.434 12.4776 106.816 12.1796 107.215 11.9071C107.987 11.3768 108.834 10.9716 109.725 10.7057C111.375 10.1994 113.127 10.1581 114.798 10.5861C116.12 10.9297 117.357 11.5605 118.425 12.4364C119.493 13.3123 120.367 14.4131 120.991 15.6657C121.422 16.5137 121.725 17.4249 121.889 18.3675C121.959 18.7088 122.001 19.0557 122.014 19.4043C122.043 19.6574 122.051 19.9125 122.038 20.167C122.038 20.3614 122.038 20.5159 122.038 20.6356C122.027 20.6908 122.009 20.7444 121.985 20.7951Z" fill="#2F448F"/>
<path d="M85.3485 1.97223C85.3677 1.93948 85.3887 1.90786 85.4113 1.87752C85.4721 1.78145 85.5452 1.69427 85.6285 1.6183C85.9541 1.31628 86.3303 1.0781 86.7387 0.915436C88.3301 0.335917 90.0038 0.0343553 91.6912 0.0231455C94.3678 -0.0616764 97.0467 0.0867343 99.6992 0.466799C103.236 0.945571 106.735 1.68522 110.169 2.68008C112.08 3.24503 114.061 3.90968 116.111 4.67403C118.246 5.47595 120.341 6.38936 122.386 7.41072C124.58 8.51455 126.714 9.74269 128.777 11.0896L135.332 15.4214L164.849 34.9671L164.955 35.0369L164.888 35.1465C162.131 39.5781 159.245 44.224 156.31 48.9596C153.375 53.6952 150.479 58.3361 147.723 62.7727L147.66 62.8823L147.554 62.8125L118.027 43.2569L111.482 38.9101L108.373 36.8364C107.355 36.1285 106.414 35.3409 105.477 34.5882C102.122 31.7195 99.0367 28.53 96.2624 25.0621C94.0256 22.1888 91.9699 19.1701 90.1079 16.0246C88.6842 13.6844 87.4337 11.2365 86.367 8.7018C85.6566 7.12697 85.1985 5.44343 85.0106 3.71693C84.9767 3.26651 85.0242 2.81349 85.1506 2.38099C85.1841 2.27055 85.2311 2.165 85.2906 2.06694C85.3065 2.03173 85.3259 1.99832 85.3485 1.96724C85.2762 2.09996 85.2179 2.24035 85.1747 2.38597C85.0592 2.81717 85.02 3.26636 85.0589 3.71195C85.2614 5.4396 85.7308 7.12257 86.4491 8.69681C87.5291 11.2192 88.7892 13.6552 90.219 15.9847C92.0929 19.1074 94.1565 22.1043 96.3975 24.9575C99.1736 28.407 102.259 31.5782 105.612 34.4287C106.52 35.1914 107.466 35.964 108.47 36.6569L111.598 38.7257L118.148 43.0625L147.679 62.6032L147.506 62.6431L156.088 48.83L164.666 35.0169L164.704 35.1964L135.197 15.6308L128.647 11.2939C126.593 9.94681 124.469 8.71703 122.285 7.61011C120.175 6.54335 118.08 5.65106 116.043 4.86844C114.006 4.08581 112.027 3.40787 110.121 2.84458C106.698 1.84122 103.211 1.09158 99.6847 0.601391C97.0415 0.205835 94.3709 0.0390926 91.7008 0.102904C90.0211 0.105699 88.3531 0.391946 86.7628 0.95033C86.3562 1.1062 85.9789 1.33391 85.6478 1.62329C85.5399 1.73185 85.4398 1.84848 85.3485 1.97223Z" fill="#2F448F"/>
<g filter="url(#filter0_d_58_1030)">
<rect x="4" y="99" width="282.857" height="72" rx="4" fill="#FF8A00"/>
</g>
<path d="M62.8319 144V127.2H77.6879V144H74.6159V129.072L75.3359 129.84H65.1839L65.9039 129.072V144H62.8319ZM87.8011 144.168C86.4891 144.168 85.3211 143.888 84.2971 143.328C83.2731 142.752 82.4651 141.968 81.8731 140.976C81.2811 139.984 80.9851 138.856 80.9851 137.592C80.9851 136.312 81.2811 135.184 81.8731 134.208C82.4651 133.216 83.2731 132.44 84.2971 131.88C85.3211 131.32 86.4891 131.04 87.8011 131.04C89.1291 131.04 90.3051 131.32 91.3291 131.88C92.3691 132.44 93.1771 133.208 93.7531 134.184C94.3451 135.16 94.6411 136.296 94.6411 137.592C94.6411 138.856 94.3451 139.984 93.7531 140.976C93.1771 141.968 92.3691 142.752 91.3291 143.328C90.3051 143.888 89.1291 144.168 87.8011 144.168ZM87.8011 141.6C88.5371 141.6 89.1931 141.44 89.7691 141.12C90.3451 140.8 90.7931 140.336 91.1131 139.728C91.4491 139.12 91.6171 138.408 91.6171 137.592C91.6171 136.76 91.4491 136.048 91.1131 135.456C90.7931 134.848 90.3451 134.384 89.7691 134.064C89.1931 133.744 88.5451 133.584 87.8251 133.584C87.0891 133.584 86.4331 133.744 85.8571 134.064C85.2971 134.384 84.8491 134.848 84.5131 135.456C84.1771 136.048 84.0091 136.76 84.0091 137.592C84.0091 138.408 84.1771 139.12 84.5131 139.728C84.8491 140.336 85.2971 140.8 85.8571 141.12C86.4331 141.44 87.0811 141.6 87.8011 141.6ZM106.248 142.608V133.728H101.328L101.256 135.792C101.224 136.528 101.176 137.24 101.112 137.928C101.048 138.6 100.944 139.224 100.8 139.8C100.656 140.36 100.448 140.824 100.176 141.192C99.9041 141.56 99.5441 141.8 99.0961 141.912L96.1201 141.456C96.6001 141.456 96.9841 141.304 97.2721 141C97.5761 140.68 97.8081 140.248 97.9681 139.704C98.1441 139.144 98.2721 138.512 98.3521 137.808C98.4321 137.088 98.4881 136.344 98.5201 135.576L98.6881 131.184H109.248V142.608H106.248ZM95.6641 146.856V141.456H111.144V146.856H108.336V144H98.4481V146.856H95.6641ZM116.487 144V133.008L117.183 133.728H111.975V131.184H123.975V133.728H118.791L119.487 133.008V144H116.487ZM126.152 144V131.184H132.416C133.968 131.184 135.184 131.472 136.064 132.048C136.96 132.624 137.408 133.44 137.408 134.496C137.408 135.536 136.992 136.352 136.16 136.944C135.328 137.52 134.224 137.808 132.848 137.808L133.208 137.064C134.76 137.064 135.912 137.352 136.664 137.928C137.432 138.488 137.816 139.312 137.816 140.4C137.816 141.536 137.392 142.424 136.544 143.064C135.696 143.688 134.408 144 132.68 144H126.152ZM129.008 141.816H132.44C133.256 141.816 133.872 141.688 134.288 141.432C134.704 141.16 134.912 140.752 134.912 140.208C134.912 139.632 134.72 139.208 134.336 138.936C133.952 138.664 133.352 138.528 132.536 138.528H129.008V141.816ZM129.008 136.536H132.152C132.92 136.536 133.496 136.4 133.88 136.128C134.28 135.84 134.48 135.44 134.48 134.928C134.48 134.4 134.28 134.008 133.88 133.752C133.496 133.496 132.92 133.368 132.152 133.368H129.008V136.536ZM146.987 144.168C145.563 144.168 144.315 143.888 143.243 143.328C142.187 142.752 141.363 141.968 140.771 140.976C140.195 139.984 139.907 138.856 139.907 137.592C139.907 136.312 140.187 135.184 140.747 134.208C141.323 133.216 142.107 132.44 143.099 131.88C144.107 131.32 145.251 131.04 146.531 131.04C147.779 131.04 148.891 131.312 149.867 131.856C150.843 132.4 151.611 133.168 152.171 134.16C152.731 135.152 153.011 136.32 153.011 137.664C153.011 137.792 153.003 137.936 152.987 138.096C152.987 138.256 152.979 138.408 152.963 138.552H142.283V136.56H151.379L150.203 137.184C150.219 136.448 150.067 135.8 149.747 135.24C149.427 134.68 148.987 134.24 148.427 133.92C147.883 133.6 147.251 133.44 146.531 133.44C145.795 133.44 145.147 133.6 144.587 133.92C144.043 134.24 143.611 134.688 143.291 135.264C142.987 135.824 142.835 136.488 142.835 137.256V137.736C142.835 138.504 143.011 139.184 143.363 139.776C143.715 140.368 144.211 140.824 144.851 141.144C145.491 141.464 146.227 141.624 147.059 141.624C147.779 141.624 148.427 141.512 149.003 141.288C149.579 141.064 150.091 140.712 150.539 140.232L152.147 142.08C151.571 142.752 150.843 143.272 149.963 143.64C149.099 143.992 148.107 144.168 146.987 144.168ZM163.396 144.168C162.356 144.168 161.404 143.928 160.54 143.448C159.692 142.968 159.012 142.248 158.5 141.288C158.004 140.312 157.756 139.08 157.756 137.592C157.756 136.088 157.996 134.856 158.476 133.896C158.972 132.936 159.644 132.224 160.492 131.76C161.34 131.28 162.308 131.04 163.396 131.04C164.66 131.04 165.772 131.312 166.732 131.856C167.708 132.4 168.476 133.16 169.036 134.136C169.612 135.112 169.9 136.264 169.9 137.592C169.9 138.92 169.612 140.08 169.036 141.072C168.476 142.048 167.708 142.808 166.732 143.352C165.772 143.896 164.66 144.168 163.396 144.168ZM156.292 148.656V131.184H159.148V134.208L159.052 137.616L159.292 141.024V148.656H156.292ZM163.06 141.6C163.78 141.6 164.42 141.44 164.98 141.12C165.556 140.8 166.012 140.336 166.348 139.728C166.684 139.12 166.852 138.408 166.852 137.592C166.852 136.76 166.684 136.048 166.348 135.456C166.012 134.848 165.556 134.384 164.98 134.064C164.42 133.744 163.78 133.584 163.06 133.584C162.34 133.584 161.692 133.744 161.116 134.064C160.54 134.384 160.084 134.848 159.748 135.456C159.412 136.048 159.244 136.76 159.244 137.592C159.244 138.408 159.412 139.12 159.748 139.728C160.084 140.336 160.54 140.8 161.116 141.12C161.692 141.44 162.34 141.6 163.06 141.6ZM181.529 142.608V133.728H176.609L176.537 135.792C176.505 136.528 176.457 137.24 176.393 137.928C176.329 138.6 176.225 139.224 176.081 139.8C175.937 140.36 175.729 140.824 175.457 141.192C175.185 141.56 174.825 141.8 174.377 141.912L171.401 141.456C171.881 141.456 172.265 141.304 172.553 141C172.857 140.68 173.089 140.248 173.249 139.704C173.425 139.144 173.553 138.512 173.633 137.808C173.713 137.088 173.769 136.344 173.801 135.576L173.969 131.184H184.529V142.608H181.529ZM170.945 146.856V141.456H186.425V146.856H183.617V144H173.729V146.856H170.945ZM189.105 144V131.184H192.105V139.632L199.185 131.184H201.921V144H198.921V135.552L191.865 144H189.105ZM208.62 144V133.008L209.316 133.728H204.108V131.184H216.108V133.728H210.924L211.62 133.008V144H208.62ZM224.716 135.408C226.364 135.408 227.62 135.776 228.484 136.512C229.348 137.248 229.78 138.288 229.78 139.632C229.78 141.024 229.3 142.112 228.34 142.896C227.38 143.664 226.028 144.04 224.284 144.024L218.284 144V131.184H221.284V135.384L224.716 135.408ZM224.02 141.816C224.9 141.832 225.572 141.648 226.036 141.264C226.5 140.88 226.732 140.32 226.732 139.584C226.732 138.848 226.5 138.32 226.036 138C225.588 137.664 224.916 137.488 224.02 137.472L221.284 137.448V141.792L224.02 141.816Z" fill="white"/>
<defs>
<filter id="filter0_d_58_1030" x="0" y="99" width="290.857" height="80" filterUnits="userSpaceOnUse" color-interpolation-filters="sRGB">
<feFlood flood-opacity="0" result="BackgroundImageFix"/>
<feColorMatrix in="SourceAlpha" type="matrix" values="0 0 0 0 0 0 0 0 0 0 0 0 0 0 0 0 0 0 127 0" result="hardAlpha"/>
<feOffset dy="4"/>
<feGaussianBlur stdDeviation="2"/>
<feComposite in2="hardAlpha" operator="out"/>
<feColorMatrix type="matrix" values="0 0 0 0 0 0 0 0 0 0 0 0 0 0 0 0 0 0 0.25 0"/>
<feBlend mode="normal" in2="BackgroundImageFix" result="effect1_dropShadow_58_1030"/>
<feBlend mode="normal" in="SourceGraphic" in2="effect1_dropShadow_58_1030" result="shape"/>
</filter>
</defs>
</svg>
