<svg width="117" height="50" viewBox="0 0 117 50" fill="none" xmlns="http://www.w3.org/2000/svg">
<path d="M34.16 22.14C33.5867 22.14 33.0333 22.07 32.5 21.93C31.9733 21.7833 31.5433 21.5967 31.21 21.37L31.86 19.91C32.1733 20.11 32.5333 20.2767 32.94 20.41C33.3533 20.5367 33.7633 20.6 34.17 20.6C34.4433 20.6 34.6633 20.5767 34.83 20.53C34.9967 20.4767 35.1167 20.41 35.19 20.33C35.27 20.2433 35.31 20.1433 35.31 20.03C35.31 19.87 35.2367 19.7433 35.09 19.65C34.9433 19.5567 34.7533 19.48 34.52 19.42C34.2867 19.36 34.0267 19.3 33.74 19.24C33.46 19.18 33.1767 19.1033 32.89 19.01C32.61 18.9167 32.3533 18.7967 32.12 18.65C31.8867 18.4967 31.6967 18.3 31.55 18.06C31.4033 17.8133 31.33 17.5033 31.33 17.13C31.33 16.71 31.4433 16.33 31.67 15.99C31.9033 15.65 32.25 15.3767 32.71 15.17C33.17 14.9633 33.7433 14.86 34.43 14.86C34.89 14.86 35.34 14.9133 35.78 15.02C36.2267 15.12 36.6233 15.27 36.97 15.47L36.36 16.94C36.0267 16.76 35.6967 16.6267 35.37 16.54C35.0433 16.4467 34.7267 16.4 34.42 16.4C34.1467 16.4 33.9267 16.43 33.76 16.49C33.5933 16.5433 33.4733 16.6167 33.4 16.71C33.3267 16.8033 33.29 16.91 33.29 17.03C33.29 17.1833 33.36 17.3067 33.5 17.4C33.6467 17.4867 33.8367 17.56 34.07 17.62C34.31 17.6733 34.57 17.73 34.85 17.79C35.1367 17.85 35.42 17.9267 35.7 18.02C35.9867 18.1067 36.2467 18.2267 36.48 18.38C36.7133 18.5267 36.9 18.7233 37.04 18.97C37.1867 19.21 37.26 19.5133 37.26 19.88C37.26 20.2867 37.1433 20.6633 36.91 21.01C36.6833 21.35 36.34 21.6233 35.88 21.83C35.4267 22.0367 34.8533 22.14 34.16 22.14ZM41.5646 16.49C41.9846 16.49 42.3646 16.5767 42.7046 16.75C43.0446 16.9167 43.3113 17.1767 43.5046 17.53C43.7046 17.8833 43.8046 18.34 43.8046 18.9V22H41.9046V19.21C41.9046 18.8233 41.8246 18.5433 41.6646 18.37C41.5113 18.19 41.2946 18.1 41.0146 18.1C40.8146 18.1 40.6313 18.1467 40.4646 18.24C40.2979 18.3267 40.1679 18.4633 40.0746 18.65C39.9813 18.8367 39.9346 19.08 39.9346 19.38V22H38.0346V16.58H39.8446V18.12L39.4946 17.67C39.7013 17.2767 39.9846 16.9833 40.3446 16.79C40.7046 16.59 41.1113 16.49 41.5646 16.49ZM44.9475 22V16.58H46.8475V22H44.9475ZM45.8975 15.98C45.5508 15.98 45.2708 15.8833 45.0575 15.69C44.8442 15.4967 44.7375 15.2567 44.7375 14.97C44.7375 14.6833 44.8442 14.4433 45.0575 14.25C45.2708 14.0567 45.5508 13.96 45.8975 13.96C46.2442 13.96 46.5242 14.0533 46.7375 14.24C46.9508 14.42 47.0575 14.6533 47.0575 14.94C47.0575 15.24 46.9508 15.49 46.7375 15.69C46.5308 15.8833 46.2508 15.98 45.8975 15.98ZM51.4423 22.09C50.9823 22.09 50.5889 21.99 50.2623 21.79C49.9356 21.5833 49.6856 21.2767 49.5123 20.87C49.3456 20.4567 49.2623 19.93 49.2623 19.29C49.2623 18.6433 49.3423 18.1167 49.5023 17.71C49.6623 17.2967 49.9023 16.99 50.2223 16.79C50.5489 16.59 50.9556 16.49 51.4423 16.49C51.9356 16.49 52.3823 16.6067 52.7823 16.84C53.1889 17.0667 53.5089 17.39 53.7423 17.81C53.9823 18.2233 54.1023 18.7167 54.1023 19.29C54.1023 19.8633 53.9823 20.36 53.7423 20.78C53.5089 21.2 53.1889 21.5233 52.7823 21.75C52.3823 21.9767 51.9356 22.09 51.4423 22.09ZM48.0323 23.94V16.58H49.8423V17.5L49.8323 19.29L49.9323 21.09V23.94H48.0323ZM51.0423 20.58C51.2556 20.58 51.4456 20.53 51.6123 20.43C51.7856 20.33 51.9223 20.1833 52.0223 19.99C52.1289 19.7967 52.1823 19.5633 52.1823 19.29C52.1823 19.0167 52.1289 18.7833 52.0223 18.59C51.9223 18.3967 51.7856 18.25 51.6123 18.15C51.4456 18.05 51.2556 18 51.0423 18C50.8289 18 50.6356 18.05 50.4623 18.15C50.2956 18.25 50.1589 18.3967 50.0523 18.59C49.9523 18.7833 49.9023 19.0167 49.9023 19.29C49.9023 19.5633 49.9523 19.7967 50.0523 19.99C50.1589 20.1833 50.2956 20.33 50.4623 20.43C50.6356 20.53 50.8289 20.58 51.0423 20.58ZM57.7754 22.09C57.1354 22.09 56.5754 21.97 56.0954 21.73C55.6221 21.4833 55.2521 21.15 54.9854 20.73C54.7254 20.3033 54.5954 19.82 54.5954 19.28C54.5954 18.74 54.7221 18.26 54.9754 17.84C55.2354 17.4133 55.5921 17.0833 56.0454 16.85C56.4987 16.61 57.0087 16.49 57.5754 16.49C58.1087 16.49 58.5954 16.6 59.0354 16.82C59.4754 17.0333 59.8254 17.35 60.0854 17.77C60.3454 18.19 60.4754 18.7 60.4754 19.3C60.4754 19.3667 60.4721 19.4433 60.4654 19.53C60.4587 19.6167 60.4521 19.6967 60.4454 19.77H56.1554V18.77H59.4354L58.7154 19.05C58.7221 18.8033 58.6754 18.59 58.5754 18.41C58.4821 18.23 58.3487 18.09 58.1754 17.99C58.0087 17.89 57.8121 17.84 57.5854 17.84C57.3587 17.84 57.1587 17.89 56.9854 17.99C56.8187 18.09 56.6887 18.2333 56.5954 18.42C56.5021 18.6 56.4554 18.8133 56.4554 19.06V19.35C56.4554 19.6167 56.5087 19.8467 56.6154 20.04C56.7287 20.2333 56.8887 20.3833 57.0954 20.49C57.3021 20.59 57.5487 20.64 57.8354 20.64C58.1021 20.64 58.3287 20.6033 58.5154 20.53C58.7087 20.45 58.8987 20.33 59.0854 20.17L60.0854 21.21C59.8254 21.4967 59.5054 21.7167 59.1254 21.87C58.7454 22.0167 58.2954 22.09 57.7754 22.09ZM61.3014 22V16.58H63.1114V18.16L62.8414 17.71C63.0014 17.3033 63.2614 17 63.6214 16.8C63.9814 16.5933 64.4181 16.49 64.9314 16.49V18.2C64.8447 18.1867 64.7681 18.18 64.7014 18.18C64.6414 18.1733 64.5747 18.17 64.5014 18.17C64.1147 18.17 63.8014 18.2767 63.5614 18.49C63.3214 18.6967 63.2014 19.0367 63.2014 19.51V22H61.3014ZM39.8803 36.14C39.307 36.14 38.7536 36.07 38.2203 35.93C37.6936 35.7833 37.2636 35.5967 36.9303 35.37L37.5803 33.91C37.8936 34.11 38.2536 34.2767 38.6603 34.41C39.0736 34.5367 39.4836 34.6 39.8903 34.6C40.1636 34.6 40.3836 34.5767 40.5503 34.53C40.717 34.4767 40.837 34.41 40.9103 34.33C40.9903 34.2433 41.0303 34.1433 41.0303 34.03C41.0303 33.87 40.957 33.7433 40.8103 33.65C40.6636 33.5567 40.4736 33.48 40.2403 33.42C40.007 33.36 39.747 33.3 39.4603 33.24C39.1803 33.18 38.897 33.1033 38.6103 33.01C38.3303 32.9167 38.0736 32.7967 37.8403 32.65C37.607 32.4967 37.417 32.3 37.2703 32.06C37.1236 31.8133 37.0503 31.5033 37.0503 31.13C37.0503 30.71 37.1636 30.33 37.3903 29.99C37.6236 29.65 37.9703 29.3767 38.4303 29.17C38.8903 28.9633 39.4636 28.86 40.1503 28.86C40.6103 28.86 41.0603 28.9133 41.5003 29.02C41.947 29.12 42.3436 29.27 42.6903 29.47L42.0803 30.94C41.747 30.76 41.417 30.6267 41.0903 30.54C40.7636 30.4467 40.447 30.4 40.1403 30.4C39.867 30.4 39.647 30.43 39.4803 30.49C39.3136 30.5433 39.1936 30.6167 39.1203 30.71C39.047 30.8033 39.0103 30.91 39.0103 31.03C39.0103 31.1833 39.0803 31.3067 39.2203 31.4C39.367 31.4867 39.557 31.56 39.7903 31.62C40.0303 31.6733 40.2903 31.73 40.5703 31.79C40.857 31.85 41.1403 31.9267 41.4203 32.02C41.707 32.1067 41.967 32.2267 42.2003 32.38C42.4336 32.5267 42.6203 32.7233 42.7603 32.97C42.907 33.21 42.9803 33.5133 42.9803 33.88C42.9803 34.2867 42.8636 34.6633 42.6303 35.01C42.4036 35.35 42.0603 35.6233 41.6003 35.83C41.147 36.0367 40.5736 36.14 39.8803 36.14ZM46.5949 36.09C45.9549 36.09 45.3949 35.97 44.9149 35.73C44.4416 35.4833 44.0716 35.15 43.8049 34.73C43.5449 34.3033 43.4149 33.82 43.4149 33.28C43.4149 32.74 43.5416 32.26 43.7949 31.84C44.0549 31.4133 44.4116 31.0833 44.8649 30.85C45.3183 30.61 45.8283 30.49 46.3949 30.49C46.9283 30.49 47.4149 30.6 47.8549 30.82C48.2949 31.0333 48.6449 31.35 48.9049 31.77C49.1649 32.19 49.2949 32.7 49.2949 33.3C49.2949 33.3667 49.2916 33.4433 49.2849 33.53C49.2783 33.6167 49.2716 33.6967 49.2649 33.77H44.9749V32.77H48.2549L47.5349 33.05C47.5416 32.8033 47.4949 32.59 47.3949 32.41C47.3016 32.23 47.1683 32.09 46.9949 31.99C46.8283 31.89 46.6316 31.84 46.4049 31.84C46.1783 31.84 45.9783 31.89 45.8049 31.99C45.6383 32.09 45.5083 32.2333 45.4149 32.42C45.3216 32.6 45.2749 32.8133 45.2749 33.06V33.35C45.2749 33.6167 45.3283 33.8467 45.4349 34.04C45.5483 34.2333 45.7083 34.3833 45.9149 34.49C46.1216 34.59 46.3683 34.64 46.6549 34.64C46.9216 34.64 47.1483 34.6033 47.3349 34.53C47.5283 34.45 47.7183 34.33 47.9049 34.17L48.9049 35.21C48.6449 35.4967 48.3249 35.7167 47.9449 35.87C47.5649 36.0167 47.1149 36.09 46.5949 36.09ZM53.2845 36V34.99L53.1545 34.74V32.88C53.1545 32.58 53.0611 32.35 52.8745 32.19C52.6945 32.0233 52.4045 31.94 52.0045 31.94C51.7445 31.94 51.4811 31.9833 51.2145 32.07C50.9478 32.15 50.7211 32.2633 50.5345 32.41L49.8945 31.12C50.2011 30.92 50.5678 30.7667 50.9945 30.66C51.4278 30.5467 51.8578 30.49 52.2845 30.49C53.1645 30.49 53.8445 30.6933 54.3245 31.1C54.8111 31.5 55.0545 32.13 55.0545 32.99V36H53.2845ZM51.6845 36.09C51.2511 36.09 50.8845 36.0167 50.5845 35.87C50.2845 35.7233 50.0545 35.5233 49.8945 35.27C49.7411 35.0167 49.6645 34.7333 49.6645 34.42C49.6645 34.0867 49.7478 33.8 49.9145 33.56C50.0878 33.3133 50.3511 33.1267 50.7045 33C51.0578 32.8667 51.5145 32.8 52.0745 32.8H53.3545V33.79H52.3345C52.0278 33.79 51.8111 33.84 51.6845 33.94C51.5645 34.04 51.5045 34.1733 51.5045 34.34C51.5045 34.5067 51.5678 34.64 51.6945 34.74C51.8211 34.84 51.9945 34.89 52.2145 34.89C52.4211 34.89 52.6078 34.84 52.7745 34.74C52.9478 34.6333 53.0745 34.4733 53.1545 34.26L53.4145 34.96C53.3145 35.3333 53.1178 35.6167 52.8245 35.81C52.5378 35.9967 52.1578 36.09 51.6845 36.09ZM56.2038 36V30.58H58.0138V32.16L57.7438 31.71C57.9038 31.3033 58.1638 31 58.5238 30.8C58.8838 30.5933 59.3204 30.49 59.8338 30.49V32.2C59.7471 32.1867 59.6704 32.18 59.6038 32.18C59.5438 32.1733 59.4771 32.17 59.4038 32.17C59.0171 32.17 58.7038 32.2767 58.4638 32.49C58.2238 32.6967 58.1038 33.0367 58.1038 33.51V36H56.2038ZM63.289 36.09C62.689 36.09 62.1523 35.97 61.679 35.73C61.2123 35.49 60.8457 35.16 60.579 34.74C60.3123 34.3133 60.179 33.8267 60.179 33.28C60.179 32.7333 60.3123 32.25 60.579 31.83C60.8457 31.41 61.2123 31.0833 61.679 30.85C62.1523 30.61 62.689 30.49 63.289 30.49C63.9023 30.49 64.4323 30.62 64.879 30.88C65.3257 31.14 65.6423 31.5067 65.829 31.98L64.359 32.73C64.2323 32.4767 64.0757 32.2933 63.889 32.18C63.7023 32.06 63.499 32 63.279 32C63.059 32 62.859 32.05 62.679 32.15C62.499 32.25 62.3557 32.3967 62.249 32.59C62.149 32.7767 62.099 33.0067 62.099 33.28C62.099 33.56 62.149 33.7967 62.249 33.99C62.3557 34.1833 62.499 34.33 62.679 34.43C62.859 34.53 63.059 34.58 63.279 34.58C63.499 34.58 63.7023 34.5233 63.889 34.41C64.0757 34.29 64.2323 34.1033 64.359 33.85L65.829 34.6C65.6423 35.0733 65.3257 35.44 64.879 35.7C64.4323 35.96 63.9023 36.09 63.289 36.09ZM70.0048 30.49C70.4248 30.49 70.8048 30.5767 71.1448 30.75C71.4848 30.9167 71.7515 31.1767 71.9448 31.53C72.1448 31.8833 72.2448 32.34 72.2448 32.9V36H70.3448V33.21C70.3448 32.8233 70.2648 32.5433 70.1048 32.37C69.9515 32.19 69.7348 32.1 69.4548 32.1C69.2548 32.1 69.0715 32.1467 68.9048 32.24C68.7382 32.3267 68.6082 32.4633 68.5148 32.65C68.4215 32.8367 68.3748 33.08 68.3748 33.38V36H66.4748V28.58H68.3748V32.12L67.9348 31.67C68.1415 31.2767 68.4248 30.9833 68.7848 30.79C69.1448 30.59 69.5515 30.49 70.0048 30.49Z" fill="#EFF3FF"/>
<g clip-path="url(#clip0_58_819)">
<path d="M15.544 10.85C15.544 10.3901 15.2057 10.0174 14.7885 10.0174C14.3713 10.0174 14.0331 10.3901 14.0331 10.85V13.1813C14.0331 13.6411 14.3713 14.0139 14.7885 14.0139C15.2057 14.0139 15.544 13.6411 15.544 13.1813V10.85Z" fill="url(#paint0_linear_58_819)"/>
<path d="M14.7885 11.5494C15.6063 11.5494 16.2692 10.8187 16.2692 9.91745C16.2692 9.01616 15.6063 8.28552 14.7885 8.28552C13.9708 8.28552 13.3079 9.01616 13.3079 9.91745C13.3079 10.8187 13.9708 11.5494 14.7885 11.5494Z" fill="url(#paint1_linear_58_819)"/>
<path d="M13.8936 12.4153C9.4183 12.8614 5.93481 16.9292 5.93481 21.8894V36.1925C5.93481 37.0585 6.58794 37.7934 7.41046 37.7934H22.0458C22.8441 37.7934 23.5214 37.0848 23.5214 36.1925V21.8894C23.5214 16.9292 20.0138 12.8614 15.5627 12.4153" fill="url(#paint2_linear_58_819)"/>
<path d="M13.9204 12.4153C9.44513 12.8614 5.96165 16.9292 5.96165 21.8894C5.96165 21.8894 5.90127 35.0957 5.96165 36.2613C6.02208 37.427 7.01926 37.8933 7.68405 37.7934C7.95383 37.7528 10.1653 37.7934 11.3135 37.7934C12.2522 37.7934 14.154 35.1956 12.5525 32.1982C10.9509 29.2008 13.882 26.603 13.882 26.603L13.5799 26.5364L13.1568 26.3366C13.1568 26.3366 13.0057 26.2367 12.5525 25.9036C12.0992 25.5706 11.1893 24.2795 11.1893 23.1393C11.1893 21.9992 11.374 20.5166 12.821 19.5092C13.5463 19.0043 14.3655 18.8431 14.8188 18.8431C15.7253 19.0022 15.982 18.9987 16.5412 19.3426C17.5384 19.956 18.2146 21.0628 18.7739 20.9412C23.0648 20.0087 22.9439 13.8807 15.9939 12.4153" fill="url(#paint3_linear_58_819)" fill-opacity="0.5"/>
<path d="M14.7583 27.0027C16.8611 27.0027 18.5658 25.124 18.5658 22.8064C18.5658 20.4888 16.8611 18.61 14.7583 18.61C12.6556 18.61 10.9509 20.4888 10.9509 22.8064C10.9509 25.124 12.6556 27.0027 14.7583 27.0027Z" fill="white"/>
<path fill-rule="evenodd" clip-rule="evenodd" d="M10.709 22.8063C10.709 20.3416 12.5218 18.3435 14.7581 18.3435C16.9944 18.3435 18.8073 20.3416 18.8073 22.8063C18.8073 25.2711 16.9944 27.2691 14.7581 27.2691C12.5218 27.2691 10.709 25.2711 10.709 22.8063ZM14.7581 18.8764C12.7889 18.8764 11.1925 20.6359 11.1925 22.8063C11.1925 24.9768 12.7889 26.7363 14.7581 26.7363C16.7274 26.7363 18.3238 24.9768 18.3238 22.8063C18.3238 20.6359 16.7274 18.8764 14.7581 18.8764Z" fill="url(#paint4_linear_58_819)"/>
<path fill-rule="evenodd" clip-rule="evenodd" d="M14.89 20.823C14.1048 20.8025 13.3607 21.2796 13.0867 22.0103C13.0102 22.2143 12.7982 22.3113 12.6131 22.227C12.428 22.1427 12.34 21.9089 12.4165 21.705C12.824 20.6184 13.8752 19.9969 14.9072 20.0239C15.1075 20.0292 15.2659 20.2123 15.2611 20.4329C15.2564 20.6536 15.0902 20.8282 14.89 20.823Z" fill="url(#paint5_linear_58_819)"/>
<path fill-rule="evenodd" clip-rule="evenodd" d="M6.00686 25.333C6.32249 25.6048 6.37847 26.1071 6.1319 26.455L2.83298 31.1092C2.74162 31.2381 2.62153 31.3277 2.4905 31.3756L5.00149 34.3453C5.27455 34.6683 5.25837 35.1741 4.96536 35.475C4.67234 35.776 4.21344 35.7582 3.94037 35.4352L0.85214 31.7828C0.579076 31.4598 0.595251 30.954 0.888269 30.6531C1.07249 30.4639 1.32228 30.4006 1.55024 30.4601C1.57168 30.3416 1.61791 30.2267 1.68998 30.125L4.98889 25.4708C5.23547 25.123 5.69123 25.0613 6.00686 25.333Z" fill="url(#paint6_linear_58_819)"/>
<path fill-rule="evenodd" clip-rule="evenodd" d="M7.33756 26.9405C7.06427 28.2113 5.90808 28.9972 4.7551 28.6961C3.60218 28.3949 2.88905 27.1206 3.16233 25.8498C3.43556 24.5791 4.59175 23.7931 5.74473 24.0943C6.89771 24.3955 7.61078 25.6698 7.33756 26.9405ZM5.927 26.572C5.83834 26.9842 5.4634 27.2391 5.08943 27.1414C4.71552 27.0437 4.48423 26.6305 4.57289 26.2183C4.66149 25.8062 5.03649 25.5513 5.4104 25.649C5.78431 25.7466 6.0156 26.1599 5.927 26.572Z" fill="url(#paint7_linear_58_819)"/>
<path fill-rule="evenodd" clip-rule="evenodd" d="M1.27253 33.1943C2.11693 33.4148 2.96369 32.8392 3.16385 31.9085C3.36401 30.9779 2.84173 30.0445 1.99727 29.8239C1.15287 29.6034 0.306117 30.179 0.105956 31.1097C-0.0942054 32.0404 0.428075 32.9737 1.27253 33.1943ZM1.51736 32.0557C1.79125 32.1272 2.06587 31.9405 2.13078 31.6386C2.19568 31.3368 2.02628 31.0341 1.75245 30.9625C1.47856 30.891 1.20394 31.0777 1.13903 31.3796C1.07413 31.6814 1.24353 31.9841 1.51736 32.0557Z" fill="url(#paint8_linear_58_819)"/>
<path d="M6.68755 35.4113C6.94355 35.2552 7.04043 34.8917 6.83302 34.6643C6.76956 34.5947 6.70151 34.53 6.62929 34.4708C6.41475 34.2951 6.16859 34.172 5.90727 34.1097C5.64601 34.0476 5.37568 34.0477 5.11442 34.1101C4.85322 34.1726 4.60713 34.296 4.39277 34.472C4.17835 34.6479 4.0006 34.8724 3.87146 35.1303C3.74224 35.3883 3.66471 35.6737 3.64386 35.9674C3.62307 36.2612 3.65957 36.5564 3.75083 36.8333C3.78159 36.9264 3.81827 37.0169 3.86058 37.1038C3.99879 37.388 4.34261 37.3899 4.55165 37.1643L4.68219 37.0234C4.81914 36.8756 4.81213 36.633 4.74668 36.4345C4.70703 36.3142 4.6912 36.1859 4.7002 36.0583C4.70927 35.9307 4.74293 35.8067 4.79907 35.6946C4.85516 35.5825 4.93239 35.485 5.02558 35.4086C5.11871 35.3322 5.22563 35.2785 5.33912 35.2514C5.45262 35.2242 5.57005 35.2242 5.68354 35.2512C5.7971 35.2783 5.90401 35.3318 5.99726 35.4081C6.15107 35.5341 6.35993 35.611 6.5277 35.5087L6.68755 35.4113Z" fill="white"/>
<path fill-rule="evenodd" clip-rule="evenodd" d="M23.6168 25.3597C23.9274 25.0809 24.3842 25.1323 24.6371 25.4746L28.0214 30.0537C28.0954 30.1537 28.1437 30.2676 28.1674 30.3855C28.3942 30.321 28.6451 30.3786 28.8328 30.5636C29.1313 30.8579 29.1568 31.3633 28.8898 31.6923L25.8698 35.4133C25.6027 35.7424 25.1443 35.7705 24.8457 35.4762C24.5472 35.1819 24.5217 34.6766 24.7887 34.3475L27.2442 31.322C27.1123 31.277 26.9906 31.1901 26.8969 31.0633L23.5126 26.4842C23.2596 26.1419 23.3063 25.6385 23.6168 25.3597Z" fill="url(#paint9_linear_58_819)"/>
<path fill-rule="evenodd" clip-rule="evenodd" d="M22.316 26.9967C22.6126 28.2611 23.7831 29.0209 24.9303 28.6939C26.0774 28.3669 26.7668 27.0768 26.4701 25.8125C26.1734 24.5481 25.0029 23.7883 23.8558 24.1154C22.7086 24.4423 22.0192 25.7324 22.316 26.9967ZM23.7194 26.5967C23.8156 27.0067 24.1952 27.2532 24.5673 27.1471C24.9393 27.041 25.1629 26.6227 25.0667 26.2125C24.9705 25.8025 24.5909 25.5561 24.2188 25.6621C23.8467 25.7682 23.6232 26.1866 23.7194 26.5967Z" fill="url(#paint10_linear_58_819)"/>
<path fill-rule="evenodd" clip-rule="evenodd" d="M28.4955 33.1129C27.6553 33.3524 26.798 32.796 26.5807 31.87C26.3634 30.944 26.8683 29.9991 27.7085 29.7596C28.5487 29.5201 29.4059 30.0766 29.6233 31.0026C29.8405 31.9286 29.3357 32.8734 28.4955 33.1129ZM28.2296 31.9801C27.9571 32.0577 27.6791 31.8772 27.6086 31.5769C27.5381 31.2766 27.7019 30.9701 27.9744 30.8925C28.2469 30.8148 28.5249 30.9953 28.5954 31.2956C28.6659 31.5959 28.5021 31.9023 28.2296 31.9801Z" fill="url(#paint11_linear_58_819)"/>
<path d="M23.2587 35.4498C22.9998 35.2996 22.8963 34.9382 23.0994 34.7062C23.1616 34.6352 23.2284 34.569 23.2996 34.5083C23.5108 34.3278 23.7546 34.1991 24.0147 34.1311C24.2748 34.063 24.5451 34.0571 24.8074 34.1137C25.0697 34.1702 25.318 34.2881 25.5357 34.4591C25.7532 34.6302 25.9351 34.8507 26.069 35.1057C26.2029 35.3607 26.2858 35.6443 26.312 35.9375C26.3382 36.2306 26.3072 36.5267 26.2211 36.8055C26.1921 36.8994 26.157 36.9906 26.1164 37.0785C25.9834 37.3657 25.6397 37.3754 25.4266 37.1545L25.2934 37.0166C25.1538 36.8719 25.1563 36.6292 25.2181 36.4292C25.2555 36.308 25.2689 36.1794 25.2576 36.0521C25.2462 35.9246 25.2102 35.8015 25.152 35.6906C25.0938 35.5799 25.0148 35.4842 24.9203 35.4098C24.8257 35.3354 24.7178 35.2843 24.6039 35.2597C24.4899 35.2351 24.3725 35.2377 24.2595 35.2673C24.1465 35.2968 24.0405 35.3527 23.9488 35.4311C23.7973 35.5606 23.5899 35.6422 23.4203 35.5437L23.2587 35.4498Z" fill="white"/>
<path d="M16.6316 29.9668C16.9821 29.9668 17.2662 29.6537 17.2662 29.2674C17.2662 28.8811 16.9821 28.568 16.6316 28.568C16.2812 28.568 15.9971 28.8811 15.9971 29.2674C15.9971 29.6537 16.2812 29.9668 16.6316 29.9668Z" fill="white" fill-opacity="0.15"/>
<path fill-rule="evenodd" clip-rule="evenodd" d="M16.6318 28.6013C16.2981 28.6013 16.0275 28.8995 16.0275 29.2674C16.0275 29.6352 16.2981 29.9335 16.6318 29.9335C16.9656 29.9335 17.2362 29.6352 17.2362 29.2674C17.2362 28.8995 16.9656 28.6013 16.6318 28.6013ZM15.967 29.2674C15.967 28.8627 16.2647 28.5347 16.6318 28.5347C16.999 28.5347 17.2966 28.8627 17.2966 29.2674C17.2966 29.672 16.999 30.0001 16.6318 30.0001C16.2647 30.0001 15.967 29.672 15.967 29.2674Z" fill="#4F68C2"/>
<path d="M18.8074 29.9668C19.1579 29.9668 19.442 29.6537 19.442 29.2674C19.442 28.8811 19.1579 28.568 18.8074 28.568C18.457 28.568 18.1729 28.8811 18.1729 29.2674C18.1729 29.6537 18.457 29.9668 18.8074 29.9668Z" fill="white" fill-opacity="0.15"/>
<path fill-rule="evenodd" clip-rule="evenodd" d="M18.8074 28.6013C18.4736 28.6013 18.203 28.8995 18.203 29.2674C18.203 29.6352 18.4736 29.9335 18.8074 29.9335C19.1411 29.9335 19.4117 29.6352 19.4117 29.2674C19.4117 28.8995 19.1411 28.6013 18.8074 28.6013ZM18.1426 29.2674C18.1426 28.8627 18.4402 28.5347 18.8074 28.5347C19.1745 28.5347 19.4722 28.8627 19.4722 29.2674C19.4722 29.672 19.1745 30.0001 18.8074 30.0001C18.4402 30.0001 18.1426 29.672 18.1426 29.2674Z" fill="#4F68C2"/>
<path d="M20.9832 29.9668C21.3337 29.9668 21.6178 29.6537 21.6178 29.2674C21.6178 28.8811 21.3337 28.568 20.9832 28.568C20.6327 28.568 20.3486 28.8811 20.3486 29.2674C20.3486 29.6537 20.6327 29.9668 20.9832 29.9668Z" fill="white" fill-opacity="0.15"/>
<path fill-rule="evenodd" clip-rule="evenodd" d="M20.9831 28.6013C20.6494 28.6013 20.3788 28.8995 20.3788 29.2674C20.3788 29.6352 20.6494 29.9335 20.9831 29.9335C21.3169 29.9335 21.5875 29.6352 21.5875 29.2674C21.5875 28.8995 21.3169 28.6013 20.9831 28.6013ZM20.3184 29.2674C20.3184 28.8627 20.616 28.5347 20.9831 28.5347C21.3503 28.5347 21.6479 28.8627 21.6479 29.2674C21.6479 29.672 21.3503 30.0001 20.9831 30.0001C20.616 30.0001 20.3184 29.672 20.3184 29.2674Z" fill="#4F68C2"/>
</g>
<defs>
<linearGradient id="paint0_linear_58_819" x1="20.8098" y1="4.75302" x2="16.456" y2="26.832" gradientUnits="userSpaceOnUse">
<stop stop-color="white"/>
<stop offset="1" stop-color="#ABDCFF"/>
</linearGradient>
<linearGradient id="paint1_linear_58_819" x1="16.9944" y1="17.744" x2="14.3727" y2="5.7184" gradientUnits="userSpaceOnUse">
<stop stop-color="#C4D1FF"/>
<stop offset="1" stop-color="#0038FF"/>
</linearGradient>
<linearGradient id="paint2_linear_58_819" x1="19.8444" y1="8.67356" x2="6.29028" y2="43.9466" gradientUnits="userSpaceOnUse">
<stop stop-color="#9AB0FF"/>
<stop offset="0.561561" stop-color="#233DFF"/>
<stop offset="1" stop-color="#002ABD"/>
</linearGradient>
<linearGradient id="paint3_linear_58_819" x1="17.0549" y1="8.28552" x2="19.1094" y2="45.5667" gradientUnits="userSpaceOnUse">
<stop stop-color="white"/>
<stop offset="0.431363" stop-color="#91A9FF"/>
<stop offset="1" stop-color="#4D74FF"/>
</linearGradient>
<linearGradient id="paint4_linear_58_819" x1="13.6703" y1="1.75784" x2="18.6466" y2="38.6088" gradientUnits="userSpaceOnUse">
<stop stop-color="#002094"/>
<stop offset="1" stop-color="#A3B7FF"/>
</linearGradient>
<linearGradient id="paint5_linear_58_819" x1="19.1087" y1="16.0451" x2="8.44123" y2="25.5859" gradientUnits="userSpaceOnUse">
<stop stop-color="#0B40FF"/>
<stop offset="1" stop-color="#DEE0E9"/>
</linearGradient>
<linearGradient id="paint6_linear_58_819" x1="6.9062" y1="29.4174" x2="-0.8628" y2="37.0361" gradientUnits="userSpaceOnUse">
<stop stop-color="white"/>
<stop offset="1" stop-color="#3CADFF"/>
</linearGradient>
<linearGradient id="paint7_linear_58_819" x1="1.93084" y1="46.0205" x2="8.10536" y2="17.543" gradientUnits="userSpaceOnUse">
<stop offset="0.371226" stop-color="#AABDFF"/>
<stop offset="0.996895" stop-color="#0B40FF"/>
</linearGradient>
<linearGradient id="paint8_linear_58_819" x1="3.54762" y1="25.6591" x2="-0.209399" y2="35.6736" gradientUnits="userSpaceOnUse">
<stop stop-color="#0B40FF"/>
<stop offset="1" stop-color="#A3D9FF"/>
</linearGradient>
<linearGradient id="paint9_linear_58_819" x1="29.7262" y1="29.4237" x2="21.9788" y2="37.2201" gradientUnits="userSpaceOnUse">
<stop stop-color="white"/>
<stop offset="1" stop-color="#3CADFF"/>
</linearGradient>
<linearGradient id="paint10_linear_58_819" x1="21.0739" y1="46.0303" x2="27.2486" y2="17.5523" gradientUnits="userSpaceOnUse">
<stop offset="0.371226" stop-color="#AABDFF"/>
<stop offset="0.996895" stop-color="#0B40FF"/>
</linearGradient>
<linearGradient id="paint11_linear_58_819" x1="26.0815" y1="25.6305" x2="30.0521" y2="35.5468" gradientUnits="userSpaceOnUse">
<stop stop-color="#0038FF"/>
<stop offset="1" stop-color="#A3D9FF"/>
</linearGradient>
<clipPath id="clip0_58_819">
<rect width="30" height="30" fill="white" transform="translate(0 8)"/>
</clipPath>
</defs>
</svg>
