<svg width="102" height="121" viewBox="0 0 102 121" fill="none" xmlns="http://www.w3.org/2000/svg">
<path d="M101.479 72.8072C100.576 55.5397 83.1025 46.851 74.1629 45.7294L67.0093 54.4081C72.7679 53.5158 87.0896 61.7707 87.7895 67.7426C88.4894 73.7145 84.0824 81.3463 78.2803 81.8947C73.7237 82.3283 66.126 78.151 63.2346 81.8099C55.9265 75.0903 43.4439 75.6436 36.7248 82.9863C34.129 82.0268 31.3565 81.6866 28.6153 81.9912C25.874 82.2958 23.2351 83.2373 20.8964 84.7451C18.5576 86.2529 16.5798 88.288 15.1111 90.6976C13.6424 93.1073 12.721 95.829 12.416 98.6588L39.3265 114.79C39.3265 114.79 50.5396 125.168 58.1856 118.778C60.797 116.594 61.7913 113.459 62.0472 110.433C62.5571 110.5 63.0748 110.466 63.5725 110.333C65.5033 109.795 66.9514 108 67.5885 106.031C67.6706 105.777 67.7333 105.533 67.7913 105.259C74.327 106.754 83.2377 105.059 88.4943 101.67C96.1209 96.7795 101.962 82.0941 101.479 72.8072Z" fill="#E8EEFF"/>
<path d="M65.1365 85.1696C65.1365 85.1696 65.0979 85.1298 65.0352 85.035L64.7697 84.6263C64.6539 84.4418 64.509 84.2175 64.3208 83.9683C64.1325 83.719 63.9298 83.415 63.6643 83.1109C62.2127 81.324 60.4369 79.8474 58.4367 78.7641C57.069 78.0149 55.6068 77.4663 54.0924 77.134C52.3491 76.7399 50.5535 76.6557 48.7827 76.8848C44.6971 77.4117 40.9296 79.4331 38.1633 82.5825C37.7627 83.0311 37.4103 83.5196 37.0772 83.9683L37.0145 84.058L36.9228 84.0082C34.7846 82.9287 32.4502 82.3263 30.0716 82.2405C27.693 82.1546 25.3236 82.587 23.1176 83.5097C22.368 83.8427 21.6379 84.2205 20.931 84.6412C19.6548 85.3869 18.4729 86.2927 17.4121 87.338C15.867 88.8379 14.6664 90.6757 13.898 92.7167C13.7532 93.0756 13.6567 93.3996 13.5698 93.6838C13.4921 93.9211 13.4261 94.1624 13.3719 94.4066L13.256 94.8552C13.2477 94.9074 13.2314 94.9579 13.2078 95.0048C13.2078 95.0048 13.2078 94.9499 13.2319 94.8503L13.3236 94.3966C13.3677 94.1486 13.4273 93.9038 13.5022 93.6638C13.5794 93.3747 13.6712 93.0457 13.8063 92.6669C14.5501 90.5897 15.7419 88.7146 17.2914 87.1835C18.3542 86.1178 19.543 85.195 20.8296 84.4369C21.5411 84.0048 22.2778 83.6186 23.0355 83.2804C23.8478 82.9319 24.6855 82.6503 25.5407 82.4379C29.4012 81.4773 33.4651 81.9356 37.0338 83.734L36.8745 83.7739C38.2718 81.7995 40.0483 80.1439 42.0931 78.9106C44.1378 77.6772 46.4069 76.8926 48.7586 76.6056C50.5527 76.3776 52.3714 76.4686 54.1358 76.8748C55.6724 77.2207 57.1543 77.7879 58.5381 78.5597C60.5483 79.6638 62.3228 81.1742 63.756 83.0012C63.9848 83.2818 64.1991 83.5746 64.398 83.8785C64.5551 84.0942 64.7001 84.3189 64.8325 84.5515C64.9338 84.731 65.0159 84.8705 65.0786 84.9752C65.1032 85.0382 65.1226 85.1033 65.1365 85.1696Z" fill="#2F448F"/>
<path d="M70.335 81.5606C70.3061 81.6005 69.9585 81.3363 69.3213 81.0921C68.9498 80.9526 68.5645 80.8557 68.1725 80.8029C67.6915 80.7436 67.2054 80.7436 66.7244 80.8029C66.2442 80.8785 65.7744 81.0124 65.3246 81.2017C64.9599 81.3611 64.6135 81.5617 64.2916 81.7999C63.7413 82.2136 63.4759 82.5626 63.4421 82.5327C63.4083 82.5028 63.4855 82.428 63.6014 82.2635C63.7716 82.0372 63.9677 81.833 64.1854 81.6553C64.5037 81.3835 64.8561 81.1571 65.2329 80.9824C66.1639 80.5488 67.1963 80.4016 68.2063 80.5587C68.6159 80.6229 69.0153 80.7436 69.3937 80.9176C69.6504 81.0279 69.8921 81.172 70.113 81.3463C70.2674 81.4759 70.3447 81.5507 70.335 81.5606Z" fill="#2F448F"/>
<path d="M77.9183 92.0637C77.9183 92.0637 77.6432 91.9241 77.1267 91.7347C76.3918 91.4654 75.6123 91.3502 74.8338 91.3957C73.6637 91.456 72.5433 91.9034 71.6384 92.6719C70.5135 93.6319 69.7865 94.9997 69.6062 96.4952L69.5821 96.7046L69.418 96.59C68.8621 96.2229 68.2678 95.9219 67.6465 95.6927C66.0469 95.1029 64.3187 94.9906 62.6602 95.3687C61.3096 95.6987 60.0519 96.3489 58.9868 97.2679C58.2681 97.8878 57.6434 98.6154 57.1333 99.4264C56.7761 100.005 56.6216 100.354 56.6023 100.339C56.6232 100.248 56.6557 100.161 56.6988 100.079C56.8012 99.8357 56.9189 99.5993 57.0512 99.3715C57.6583 98.3201 58.4624 97.4042 59.4164 96.6775C60.3703 95.9508 61.4551 95.4279 62.6071 95.1394C63.7861 94.8552 65.0083 94.8182 66.2014 95.0305C67.3945 95.2428 68.5343 95.7002 69.5531 96.3756L69.36 96.4703C69.5457 94.9052 70.3123 93.4755 71.4984 92.4824C72.445 91.6955 73.6144 91.2492 74.829 91.2113C75.626 91.1806 76.4203 91.3233 77.1605 91.63C77.3589 91.7128 77.5509 91.8111 77.7349 91.9241C77.8021 91.9614 77.8639 92.0084 77.9183 92.0637Z" fill="#2F448F"/>
<path d="M98.7807 62.7178C98.8557 62.8284 98.9219 62.9451 98.9786 63.0668C99.0945 63.3011 99.2779 63.645 99.4854 64.0986C100.055 65.3905 100.507 66.7338 100.837 68.1115C101.315 70.1537 101.561 72.2465 101.571 74.3475C101.58 75.5897 101.518 76.8314 101.387 78.0662C101.253 79.3931 101.047 80.7112 100.769 82.0143C99.8146 86.6003 98.1069 90.9837 95.7204 94.9749C94.9998 96.1834 94.1759 97.3228 93.2586 98.3796C92.9256 98.7435 92.6601 99.0226 92.467 99.1971C92.3751 99.2927 92.2749 99.3795 92.1677 99.4563C92.2491 99.3501 92.3378 99.2501 92.4332 99.1572C92.6166 98.9728 92.8628 98.6837 93.1862 98.3098C94.0696 97.2351 94.867 96.0881 95.5708 94.8802C97.8975 90.887 99.5708 86.5249 100.523 81.9694C100.8 80.6763 101.006 79.3682 101.141 78.0513C101.277 76.8251 101.343 75.5917 101.339 74.3575C101.341 72.2677 101.116 70.1843 100.668 68.1464C100.352 66.7831 99.9278 65.4492 99.3986 64.1585C99.2103 63.6999 99.0365 63.3559 98.9159 63.1116C98.8604 62.9844 98.8152 62.8527 98.7807 62.7178Z" fill="#2F448F"/>
<path d="M85.4293 63.3809C85.6003 63.525 85.7513 63.6928 85.8782 63.8793C86.2554 64.3448 86.5899 64.8455 86.8774 65.3748C87.8492 67.1281 88.3303 69.1256 88.2673 71.1447C88.2042 73.1638 87.5994 75.1252 86.5202 76.8101C86.2012 77.3171 85.8377 77.7927 85.4341 78.2308C85.2915 78.4001 85.1294 78.5508 84.9514 78.6794C85.4584 78.0511 85.9306 77.3937 86.3657 76.7104C87.3817 75.0353 87.9496 73.1121 88.0115 71.1366C88.0734 69.1611 87.6271 67.2039 86.7181 65.4645C86.3322 64.7422 85.9017 64.0462 85.4293 63.3809Z" fill="#2F448F"/>
<path d="M67.7332 50.0065C68.9702 51.9583 70.5699 53.6373 72.4395 54.9465C72.7066 55.1306 73.0231 55.2234 73.344 55.2115C73.665 55.1996 73.9742 55.0837 74.2279 54.8802C74.4815 54.6767 74.6667 54.3959 74.7572 54.0777C74.8478 53.7595 74.839 53.4199 74.7323 53.1071V53.0672C76.9245 54.8027 79.2256 56.3864 81.6204 57.8078C81.9554 58.0108 82.3431 58.1017 82.7301 58.0682C83.1172 58.0347 83.4847 57.8784 83.7824 57.6207C84.0801 57.363 84.2932 57.0165 84.3927 56.6288C84.4922 56.2411 84.4731 55.831 84.338 55.4549C81.9392 48.6742 77.2398 43.0223 71.112 39.5482L67.7332 50.0065Z" fill="#407BFF"/>
<g opacity="0.3">
<path d="M70.5137 50.2457C70.7066 50.5906 70.9642 50.8923 71.2715 51.133C71.4259 51.2513 71.6102 51.3209 71.8021 51.3333C71.994 51.3457 72.1853 51.3003 72.3528 51.2028C72.8355 50.8688 72.8113 50.0562 73.3182 49.7472C73.825 49.4381 74.4815 49.8818 74.9255 50.3155L76.3254 51.6963C76.6681 52.0352 77.1315 52.3991 77.5707 52.1948C78.01 51.9904 78.0872 51.2875 77.981 50.7591C77.7231 49.5264 77.1795 48.3767 76.3968 47.4086C75.6141 46.4405 74.6156 45.683 73.4871 45.201L70.5137 50.2457Z" fill="black"/>
</g>
<path d="M89.0977 62.1197C89.1135 62.5754 89.3019 63.0064 89.6224 63.3201C89.9429 63.6338 90.3699 63.805 90.8114 63.7968C91.2529 63.7886 91.6736 63.6018 91.983 63.2764C92.2924 62.9511 92.4658 62.5134 92.4658 62.0573C92.4658 61.6013 92.2924 61.1636 91.983 60.8382C91.6736 60.5129 91.2529 60.3261 90.8114 60.3179C90.3699 60.3097 89.9429 60.4809 89.6224 60.7946C89.3019 61.1082 89.1135 61.5393 89.0977 61.995" fill="#407BFF"/>
<path d="M0.348777 1.97304C-1.01243 4.1614 1.96582 11.8082 8.79119 21.5985C12.8109 27.3782 17.6996 32.4571 23.2722 36.6428L62.6315 62.7186L69.2831 52.0111L73.1446 45.8L79.7963 35.0925L44.0765 11.4293C40.5838 9.11167 36.8838 7.14528 33.0275 5.55716C29.1725 3.94858 25.1983 2.66331 21.1435 1.71383C9.7759 -0.863349 1.70516 -0.215316 0.348777 1.97304Z" fill="#E8EEFF"/>
<path d="M55.1108 18.7512L55.2556 18.7014C59.4381 17.2516 63.8826 16.791 68.2606 17.3536C72.6386 17.9162 76.8382 19.4875 80.5491 21.9515L85.2651 25.077L72.7487 30.4358L55.1108 18.7512Z" fill="#407BFF"/>
<path d="M55.1108 18.7513L55.2026 18.8111L55.4584 18.9756L56.4238 19.6186L60.0971 22.0064L72.7873 30.361H72.7197L84.1259 25.4958L85.2313 24.9973V25.1468L82.4557 23.3024C81.5386 22.7043 80.6505 22.0861 79.7478 21.5428C78.0239 20.4745 76.1996 19.5894 74.303 18.9008C72.5904 18.2754 70.8237 17.8213 69.0271 17.5449C68.1872 17.3904 67.3666 17.3405 66.5798 17.2558C65.793 17.1711 65.0351 17.1661 64.3111 17.196C62.0334 17.2118 59.7654 17.5029 57.5533 18.0633C56.7617 18.2378 56.1728 18.4571 55.7625 18.5618L55.1398 18.7463L55.2943 18.6864L55.7142 18.517C56.1197 18.3923 56.7086 18.163 57.5002 17.9786C59.7183 17.3905 61.997 17.0809 64.287 17.0564C65.011 17.0215 65.7737 17.0564 66.5653 17.1062C67.3569 17.1561 68.1775 17.2359 69.0222 17.3854C70.8297 17.6577 72.6078 18.1084 74.3319 18.7313C76.24 19.4203 78.0756 20.3071 79.8106 21.3783C80.7229 21.9266 81.6062 22.5398 82.5233 23.1429L85.3085 24.9973L85.4437 25.087L85.294 25.1518L84.1886 25.6503L72.7776 30.5305H72.739H72.7052L60.0054 22.0562L56.3852 19.6336L55.4198 18.9905C55.3184 18.9207 55.2363 18.8709 55.1784 18.826L55.1108 18.7513Z" fill="#2F448F"/>
<path d="M37.9509 46.3824C37.9509 46.3824 37.9509 46.4572 37.9509 46.5369C38.4134 51.0044 39.8415 55.3076 42.1298 59.1289C44.4181 62.9502 47.5082 66.1919 51.1721 68.6149L55.8253 71.7005L55.3426 57.9074L37.9509 46.3824Z" fill="#407BFF"/>
<path d="M37.9508 46.3824L38.0281 46.4272L38.2694 46.5868L39.2348 47.2049L42.8261 49.5627L55.4004 57.8376L55.4342 57.8625V57.8974C55.5742 61.7707 55.7286 66.0178 55.8879 70.4693C55.8879 70.888 55.9169 71.3067 55.9314 71.6906V71.8551L55.7962 71.7653L53.0545 69.9508C52.1567 69.3477 51.2589 68.7794 50.4093 68.1613C48.7642 66.9959 47.2389 65.6596 45.8574 64.1734C44.6084 62.8365 43.4881 61.3773 42.5123 59.8166C42.0296 59.0988 41.6483 58.351 41.2525 57.6532C40.8567 56.9553 40.5429 56.2524 40.2871 55.5645C39.3636 53.4419 38.6895 51.2128 38.2791 48.9247C38.1198 48.1171 38.0715 47.4791 38.0136 47.0504C37.9894 46.841 37.9701 46.6815 37.9557 46.5519C37.9412 46.4223 37.9557 46.3874 37.9557 46.3874C37.9557 46.4821 37.9943 46.6615 38.0522 47.0354C38.1101 47.4093 38.1777 48.1022 38.3466 48.9047C38.7721 51.1872 39.4541 53.4105 40.3788 55.5296C40.654 56.2125 41.016 56.8855 41.3442 57.6083C41.6724 58.3311 42.1262 59.039 42.6041 59.7518C43.5823 61.3014 44.7025 62.7504 45.9492 64.0787C47.327 65.5523 48.8456 66.8784 50.4817 68.0366C51.3264 68.6448 52.2291 69.2131 53.1269 69.8162L55.8686 71.6307L55.7383 71.7055C55.7383 71.3217 55.7142 70.9029 55.6948 70.4892C55.5404 66.0377 55.3907 61.7856 55.2556 57.9124L55.2894 57.9772L42.8164 49.6624L39.23 47.2597L38.2646 46.6167L38.0184 46.4472L37.9508 46.3824Z" fill="#2F448F"/>
<path d="M0.348428 1.97283C-0.766607 3.62282 0.831133 8.62265 4.75065 15.3123L15.3362 0.572085C7.72407 -0.389995 1.77239 -0.145736 0.348428 1.97283Z" fill="#407BFF"/>
<path d="M73.2073 31.1337C73.2459 31.1636 69.5098 37.3299 64.8614 44.9069C60.213 52.4839 56.4142 58.6153 56.3755 58.5854C56.3369 58.5554 60.0585 52.4141 64.7214 44.8171C69.3843 37.2202 73.1686 31.1088 73.2073 31.1337Z" fill="#2F448F"/>
<path d="M74.3223 32.0509C74.3609 32.0509 70.6248 38.2421 65.9764 45.8191C61.328 53.3961 57.5291 59.5275 57.4905 59.4976C57.4519 59.4677 61.188 53.3113 65.8364 45.7294C70.4848 38.1474 74.2836 32.021 74.3223 32.0509Z" fill="#2F448F"/>
<path d="M75.5967 32.8585C75.6353 32.8884 71.8992 39.0547 67.2508 46.6317C62.6024 54.2087 58.8036 60.34 58.7649 60.3101C58.7263 60.2802 62.4624 54.1239 67.1108 46.5419C71.7592 38.96 75.5581 32.8335 75.5967 32.8585Z" fill="#2F448F"/>
<path d="M76.871 33.671C76.9096 33.7009 73.1687 39.8672 68.5251 47.4442C63.8816 55.0212 60.0586 61.1476 60.0586 61.1226C60.0586 61.0977 63.7561 54.9364 68.4045 47.3544C73.0529 39.7724 76.8276 33.646 76.871 33.671Z" fill="#2F448F"/>
<path d="M78.1404 34.4686C78.179 34.4686 74.4429 40.6598 69.7945 48.2418C65.1461 55.8237 61.3473 61.9452 61.3086 61.9202C61.27 61.8953 65.0061 55.734 69.6545 48.152C74.3029 40.57 78.1018 34.4686 78.1404 34.4686Z" fill="#2F448F"/>
<path d="M46.5911 32.5344C46.5911 32.5344 46.6635 32.5344 46.7938 32.6242C46.9241 32.7139 47.1076 32.8036 47.3489 32.9432C47.8316 33.2323 48.5026 33.666 49.3328 34.2093C50.9981 35.2911 53.2813 36.8164 55.7913 38.5163C58.3013 40.2161 60.5652 41.7664 62.2016 42.898L64.1324 44.2489L64.6488 44.6227C64.713 44.6603 64.7716 44.7073 64.8226 44.7623C64.7555 44.7293 64.691 44.6909 64.6295 44.6477L64.0937 44.3037L62.134 42.9977L55.7141 38.6558L49.2845 34.309L47.3537 33.003C47.122 32.8535 46.9434 32.7238 46.8179 32.6541L46.5911 32.5344Z" fill="#2F448F"/>
<path d="M55.1109 18.7513C55.1495 18.7812 51.3748 24.9375 46.683 32.4996C41.9911 40.0616 38.1537 46.183 38.115 46.1581C38.0764 46.1332 41.8511 39.9769 46.543 32.4098C51.2348 24.8428 55.0723 18.7264 55.1109 18.7513Z" fill="#2F448F"/>
<path d="M60.9466 38.9147C60.9231 38.8351 60.9231 38.75 60.9466 38.6704C60.9798 38.4417 61.089 38.232 61.2555 38.0772C61.3771 37.9552 61.5276 37.8683 61.692 37.8255C61.8564 37.7826 62.0288 37.7852 62.192 37.833C62.4002 37.8841 62.5877 38.0014 62.7281 38.1684C62.8684 38.3354 62.9544 38.5436 62.9742 38.7637C62.9939 38.9839 62.9462 39.2049 62.838 39.3956C62.7297 39.5863 62.5662 39.7372 62.3706 39.8269C62.2188 39.9055 62.0496 39.9413 61.8801 39.9308C61.7106 39.9203 61.5468 39.8639 61.4052 39.7671C61.2181 39.6518 61.0724 39.4769 60.99 39.2686C60.9418 39.1191 60.9514 39.0243 60.9611 39.0243C60.9707 39.0243 60.9852 39.1091 61.0528 39.2437C61.1428 39.4311 61.2859 39.5858 61.4631 39.6873C61.5902 39.7625 61.7341 39.8021 61.8806 39.8021C62.0271 39.8021 62.171 39.7625 62.2982 39.6873C62.4584 39.6063 62.591 39.4767 62.6782 39.316C62.7654 39.1552 62.8032 38.9708 62.7864 38.7873C62.7696 38.6038 62.6992 38.4299 62.5843 38.2888C62.4695 38.1477 62.3158 38.0461 62.1437 37.9975C62.005 37.9523 61.8574 37.9452 61.7153 37.9766C61.5731 38.0081 61.4413 38.0771 61.3328 38.1769C61.178 38.3058 61.0637 38.4793 61.0045 38.6754C60.9611 38.8299 60.9611 38.9147 60.9466 38.9147Z" fill="#2F448F"/>
<path d="M53.4308 33.7308C53.4308 33.7308 53.397 33.6461 53.4308 33.4866C53.464 33.2578 53.5732 33.0481 53.7397 32.8934C53.8613 32.7713 54.0119 32.6845 54.1762 32.6416C54.3406 32.5987 54.513 32.6013 54.6762 32.6491C54.8844 32.7003 55.0719 32.8176 55.2123 32.9846C55.3526 33.1515 55.4387 33.3598 55.4584 33.5799C55.4781 33.8001 55.4305 34.021 55.3222 34.2118C55.2139 34.4025 55.0504 34.5533 54.8548 34.6431C54.703 34.7217 54.5338 34.7575 54.3643 34.747C54.1948 34.7365 54.031 34.68 53.8894 34.5833C53.7048 34.4664 53.561 34.2917 53.4791 34.0848C53.4482 34.0076 53.4365 33.9236 53.4453 33.8405C53.4453 33.8405 53.4742 33.9253 53.5418 34.0598C53.6319 34.2473 53.775 34.402 53.9521 34.5035C54.0783 34.5787 54.2215 34.6184 54.3672 34.6184C54.513 34.6184 54.6561 34.5787 54.7824 34.5035C54.9427 34.4229 55.0755 34.2937 55.1631 34.1333C55.2506 33.9728 55.2888 33.7886 55.2726 33.6052C55.2564 33.4218 55.1864 33.2478 55.0721 33.1064C54.9578 32.965 54.8046 32.8629 54.6327 32.8136C54.4933 32.7686 54.3449 32.7614 54.202 32.7929C54.0591 32.8243 53.9265 32.8933 53.817 32.9931C53.6648 33.1235 53.5524 33.2966 53.4935 33.4916C53.4453 33.6461 53.4453 33.7308 53.4308 33.7308Z" fill="#2F448F"/>
<path d="M38.9547 30.1217C38.935 30.0416 38.935 29.9577 38.9547 29.8775C38.9915 29.65 39.1001 29.4415 39.2636 29.2843C39.3879 29.157 39.5434 29.067 39.7135 29.024C39.8836 28.981 40.0617 28.9865 40.229 29.04C40.437 29.0918 40.624 29.2097 40.7638 29.377C40.9036 29.5442 40.9891 29.7526 41.0083 29.9727C41.0275 30.1927 40.9794 30.4135 40.8707 30.6039C40.7621 30.7942 40.5985 30.9447 40.4028 31.034C40.251 31.1126 40.0818 31.1484 39.9123 31.1379C39.7428 31.1274 39.579 31.0709 39.4374 30.9742C39.2514 30.8589 39.1072 30.6838 39.0271 30.4757C38.974 30.3211 38.9836 30.2314 38.9933 30.2314C39.0281 30.3026 39.0587 30.3758 39.085 30.4508C39.1779 30.6361 39.3203 30.7901 39.4953 30.8944C39.6227 30.9687 39.7665 31.0077 39.9128 31.0077C40.0591 31.0077 40.2029 30.9687 40.3303 30.8944C40.4828 30.8037 40.6083 30.6717 40.6934 30.5127C40.7784 30.3537 40.8198 30.1737 40.813 29.9921C40.7889 29.8109 40.7152 29.6406 40.6006 29.5011C40.4861 29.3616 40.3354 29.2587 40.1662 29.2045C40.0276 29.1594 39.88 29.1522 39.7378 29.1837C39.5957 29.2151 39.4639 29.2842 39.3553 29.384C39.2005 29.5129 39.0862 29.6864 39.0271 29.8825C38.9691 30.037 38.9691 30.1217 38.9547 30.1217Z" fill="#2F448F"/>
<path d="M32.5109 28.4867C32.5399 28.4518 35.3009 30.0221 38.6798 31.9761C42.0587 33.9302 44.7715 35.5902 44.7425 35.63C44.7135 35.6699 41.9525 34.0947 38.5736 32.1406C35.1947 30.1866 32.4868 28.5415 32.5109 28.4867Z" fill="#2F448F"/>
<g opacity="0.3">
<path d="M54.8937 57.6033C54.8937 57.6033 43.6468 49.7671 37.9509 46.3824C39.9155 49.2886 42.1794 52.5885 44.9066 54.742C47.7734 56.949 51.3356 57.9696 54.8937 57.6033Z" fill="black"/>
</g>
<path d="M36.6052 22.9985C38.0868 17.7895 35.199 12.3264 30.155 10.7963C25.111 9.26618 19.8209 12.2485 18.3393 17.4574C16.8576 22.6664 19.7455 28.1295 24.7894 29.6596C29.8334 31.1897 35.1235 28.2074 36.6052 22.9985Z" fill="white"/>
<path d="M36.9853 20.7951C36.9791 20.7421 36.9791 20.6886 36.9853 20.6356C36.9853 20.5159 36.9853 20.3614 36.9853 20.167C36.9899 19.9136 36.9754 19.6603 36.9418 19.4093C36.9165 19.0656 36.8681 18.7242 36.797 18.3874C36.6195 17.4616 36.3104 16.568 35.8799 15.7354C35.3134 14.631 34.5484 13.648 33.6257 12.8392C32.4273 11.7853 30.9918 11.0591 29.4509 10.7273C27.9101 10.3954 26.3132 10.4686 24.8068 10.94C23.9371 11.2016 23.1116 11.6001 22.3595 12.1214C21.9701 12.3873 21.5977 12.6787 21.2445 12.9938C20.9021 13.3289 20.5797 13.6851 20.2791 14.0605C19.0012 15.651 18.2504 17.6224 18.1366 19.6857C18.0228 21.749 18.552 23.7957 19.6467 25.5257C19.8994 25.9322 20.1767 26.3218 20.477 26.6922C20.7919 27.0485 21.1307 27.3816 21.4906 27.6892C22.1807 28.2968 22.9573 28.7911 23.7931 29.1547C25.3328 29.8366 27.0201 30.0843 28.6828 29.8725C30.0096 29.6962 31.2851 29.232 32.4257 28.5103C33.5663 27.7886 34.5461 26.8258 35.3007 25.6852C35.821 24.9093 36.2261 24.0575 36.5026 23.1579C36.6096 22.8316 36.6967 22.4986 36.7632 22.1609C36.824 21.9155 36.866 21.6655 36.8887 21.4132C36.9129 21.2238 36.9322 21.0693 36.9515 20.9496C36.9547 20.897 36.9645 20.8451 36.9804 20.7951C36.9847 20.8482 36.9847 20.9015 36.9804 20.9546C36.9804 21.0742 36.9563 21.2288 36.9418 21.4182C36.9288 21.6733 36.8948 21.9267 36.8405 22.1759C36.7824 22.5136 36.7018 22.8467 36.5991 23.1729C36.3466 24.0941 35.9556 24.9688 35.4406 25.765C34.685 26.9364 33.6961 27.9278 32.5399 28.6731C31.3837 29.4184 30.0869 29.9004 28.7359 30.0869C27.0278 30.3169 25.2912 30.0708 23.7062 29.374C22.8481 29.004 22.0503 28.4996 21.341 27.8786C20.5848 27.2487 19.9327 26.4962 19.4102 25.6503C18.8579 24.7837 18.4439 23.8311 18.1841 22.8289C17.9209 21.7952 17.8118 20.7262 17.8607 19.6585C17.9833 17.5451 18.7542 15.5268 20.0618 13.896C20.3717 13.5055 20.7089 13.139 21.0707 12.7994C21.4336 12.4776 21.8157 12.1796 22.2147 11.9071C22.9871 11.3768 23.8336 10.9716 24.7247 10.7057C26.3752 10.1994 28.1268 10.1581 29.7979 10.5861C31.1204 10.9297 32.3568 11.5605 33.4247 12.4364C34.4926 13.3123 35.3674 14.4131 35.9909 15.6657C36.4218 16.5137 36.7245 17.4249 36.8887 18.3675C36.9586 18.7088 37.0005 19.0557 37.0142 19.4043C37.0427 19.6574 37.0508 19.9125 37.0384 20.167C37.0384 20.3614 37.0384 20.5159 37.0384 20.6356C37.0273 20.6908 37.0094 20.7444 36.9853 20.7951Z" fill="#2F448F"/>
<path d="M0.348521 1.97223C0.367721 1.93948 0.388665 1.90786 0.411267 1.87752C0.472101 1.78145 0.545166 1.69427 0.628488 1.6183C0.954119 1.31628 1.33033 1.0781 1.73869 0.915436C3.33005 0.335917 5.00382 0.0343553 6.69119 0.0231455C9.36785 -0.0616764 12.0467 0.0867343 14.6992 0.466799C18.2358 0.945571 21.7346 1.68522 25.1689 2.68008C27.0804 3.24503 29.0611 3.90968 31.1109 4.67403C33.2462 5.47595 35.3406 6.38936 37.386 7.41072C39.5803 8.51455 41.7139 9.74269 43.777 11.0896L50.332 15.4214L79.8491 34.9671L79.9553 35.0369L79.8877 35.1465C77.1315 39.5781 74.2449 44.224 71.3101 48.9596C68.3753 53.6952 65.4791 58.3361 62.7229 62.7727L62.6602 62.8823L62.554 62.8125L33.0273 43.2569L26.4819 38.9101L23.3733 36.8364C22.3548 36.1285 21.4135 35.3409 20.4771 34.5882C17.1219 31.7195 14.0367 28.53 11.2624 25.0621C9.02558 22.1888 6.96987 19.1701 5.10794 16.0246C3.68421 13.6844 2.43368 11.2365 1.36702 8.7018C0.656557 7.12697 0.198467 5.44343 0.0106334 3.71693C-0.0233036 3.26651 0.024161 2.81349 0.150613 2.38099C0.184057 2.27055 0.2311 2.165 0.290593 2.06694C0.306519 2.03173 0.325935 1.99832 0.348521 1.96724C0.276192 2.09996 0.217931 2.24035 0.174749 2.38597C0.0592097 2.81717 0.0199623 3.26636 0.0588989 3.71195C0.261409 5.4396 0.730755 7.12257 1.44908 8.69681C2.52906 11.2192 3.78917 13.6552 5.21896 15.9847C7.09287 19.1074 9.15652 22.1043 11.3975 24.9575C14.1736 28.407 17.2588 31.5782 20.6122 34.4287C21.5197 35.1914 22.4658 35.964 23.4698 36.6569L26.5977 38.7257L33.1479 43.0625L62.6795 62.6032L62.5057 62.6431L71.0881 48.83L79.6657 35.0169L79.7043 35.1964L50.1969 15.6308L43.6466 11.2939C41.5928 9.94681 39.4689 8.71703 37.2847 7.61011C35.1753 6.54335 33.0804 5.65106 31.0434 4.86844C29.0064 4.08581 27.0273 3.40787 25.1206 2.84458C21.6981 1.84122 18.2106 1.09158 14.6847 0.601391C12.0415 0.205835 9.37092 0.0390926 6.70084 0.102904C5.02112 0.105699 3.35314 0.391946 1.76283 0.95033C1.35618 1.1062 0.978882 1.33391 0.647793 1.62329C0.539866 1.73185 0.43984 1.84848 0.348521 1.97223Z" fill="#2F448F"/>
</svg>
